<svg width="83" height="95" viewBox="0 0 83 95" fill="none" xmlns="http://www.w3.org/2000/svg">
<circle cx="24" cy="35.5" r="6.5" fill="url(#paint0_linear_543_258)"/>
<circle cx="59" cy="35.5" r="6.5" fill="url(#paint1_linear_543_258)"/>
<path d="M41.5 0L43.5206 6.21885H50.0595L44.7694 10.0623L46.7901 16.2812L41.5 12.4377L36.2099 16.2812L38.2306 10.0623L32.9405 6.21885H39.4794L41.5 0Z" fill="url(#paint2_linear_543_258)"/>
<path d="M25.5 13L26.6226 16.4549H30.2553L27.3164 18.5902L28.4389 22.0451L25.5 19.9098L22.5611 22.0451L23.6836 18.5902L20.7447 16.4549H24.3774L25.5 13Z" fill="url(#paint3_linear_543_258)"/>
<path d="M58.5 13L59.6226 16.4549H63.2553L60.3164 18.5902L61.4389 22.0451L58.5 19.9098L55.5611 22.0451L56.6836 18.5902L53.7447 16.4549H57.3774L58.5 13Z" fill="url(#paint4_linear_543_258)"/>
<path d="M15.5 91L27.5 60L40.5 65.5L15.5 91Z" fill="url(#paint5_linear_543_258)"/>
<path d="M67.5 91L56.5 59.5L42.5 65.5L67.5 91Z" fill="url(#paint6_linear_543_258)"/>
<path d="M40.5 65.5V94.9998L30.5 75.5L40.5 65.5Z" fill="url(#paint7_linear_543_258)"/>
<path d="M42.5 65.5V95.0004L52 75L42.5 65.5Z" fill="url(#paint8_linear_543_258)"/>
<path d="M40.5 65.5V24L30 49H0L40.5 65.5Z" fill="url(#paint9_linear_543_258)"/>
<path d="M42.5 65.5V24L53 49H83L42.5 65.5Z" fill="url(#paint10_linear_543_258)"/>
<defs>
<linearGradient id="paint0_linear_543_258" x1="24" y1="29" x2="24" y2="42" gradientUnits="userSpaceOnUse">
<stop stop-color="#B04076"/>
<stop offset="1" stop-color="#B24076"/>
</linearGradient>
<linearGradient id="paint1_linear_543_258" x1="59" y1="29" x2="59" y2="42" gradientUnits="userSpaceOnUse">
<stop stop-color="#343E81"/>
<stop offset="1" stop-color="#448AC8"/>
</linearGradient>
<linearGradient id="paint2_linear_543_258" x1="41.5" y1="0" x2="41.5" y2="18" gradientUnits="userSpaceOnUse">
<stop stop-color="#F6C81E"/>
<stop offset="1" stop-color="#EE7F25"/>
</linearGradient>
<linearGradient id="paint3_linear_543_258" x1="25.5" y1="13" x2="25.5" y2="23" gradientUnits="userSpaceOnUse">
<stop stop-color="#D44A5F"/>
<stop offset="1" stop-color="#DE695E"/>
</linearGradient>
<linearGradient id="paint4_linear_543_258" x1="58.5" y1="13" x2="58.5" y2="23" gradientUnits="userSpaceOnUse">
<stop stop-color="#4079B8"/>
<stop offset="1" stop-color="#364689"/>
</linearGradient>
<linearGradient id="paint5_linear_543_258" x1="27.5" y1="61" x2="27.5" y2="91" gradientUnits="userSpaceOnUse">
<stop stop-color="#D25E48"/>
<stop offset="1" stop-color="#E46F67"/>
</linearGradient>
<linearGradient id="paint6_linear_543_258" x1="55.5" y1="61" x2="55.5" y2="91" gradientUnits="userSpaceOnUse">
<stop stop-color="#35448E"/>
<stop offset="1" stop-color="#33356D"/>
</linearGradient>
<linearGradient id="paint7_linear_543_258" x1="36" y1="66" x2="36" y2="95" gradientUnits="userSpaceOnUse">
<stop stop-color="#E24159"/>
<stop offset="1" stop-color="#C25565"/>
</linearGradient>
<linearGradient id="paint8_linear_543_258" x1="47" y1="66" x2="47" y2="95" gradientUnits="userSpaceOnUse">
<stop stop-color="#292342"/>
<stop offset="1" stop-color="#292342"/>
</linearGradient>
<linearGradient id="paint9_linear_543_258" x1="20.25" y1="24" x2="20.25" y2="65.5" gradientUnits="userSpaceOnUse">
<stop stop-color="#F5BF20"/>
<stop offset="1" stop-color="#EC6B27"/>
</linearGradient>
<linearGradient id="paint10_linear_543_258" x1="62.75" y1="24" x2="62.75" y2="65.5" gradientUnits="userSpaceOnUse">
<stop stop-color="#48A5DB"/>
<stop offset="1" stop-color="#406FB4"/>
</linearGradient>
</defs>
</svg>
