<svg width="380" height="253" viewBox="0 0 380 253" fill="none" xmlns="http://www.w3.org/2000/svg">
<path d="M293.36 59.0856C291.294 55.3023 288.778 51.7821 285.867 48.6013C275.5 37.3631 261.623 29.8338 247.36 24.7181C226.301 17.2262 204.074 13.5423 181.721 13.8391C156.621 14.168 130.958 21.0496 109.825 34.7217C99.2588 41.4934 90.1335 50.28 82.9719 60.5783C74.6169 72.6313 72.3319 87.0725 65.6641 99.9704C58.7329 113.42 49.5065 125.549 39.8596 137.151C33.658 144.605 27.1929 151.977 22.7089 160.564C18.2249 169.151 15.7777 179.245 18.2401 188.622C20.4695 197.127 26.5292 204.267 33.7695 209.277C50.7124 220.996 73.0463 223.951 93.1153 225.038C181.422 229.896 170.083 218.567 233.68 224.234C270.119 227.477 321.429 229.152 341.894 191.916C348.845 179.266 351.12 164.627 344.756 151.203C339.913 140.992 331.107 133.326 323.152 125.291C312.163 114.199 307.38 102.87 303.493 88.044C300.889 77.9847 298.265 67.9963 293.36 59.0856Z" fill="#EE742A"/>
<path opacity="0.7" d="M293.36 59.0856C291.294 55.3023 288.778 51.7821 285.867 48.6013C275.5 37.3631 261.623 29.8338 247.36 24.7181C226.301 17.2262 204.074 13.5423 181.721 13.8391C156.621 14.168 130.958 21.0496 109.825 34.7217C99.2588 41.4934 90.1335 50.28 82.9719 60.5783C74.6169 72.6313 72.3319 87.0725 65.6641 99.9704C58.7329 113.42 49.5065 125.549 39.8596 137.151C33.658 144.605 27.1929 151.977 22.7089 160.564C18.2249 169.151 15.7777 179.245 18.2401 188.622C20.4695 197.127 26.5292 204.267 33.7695 209.277C50.7124 220.996 73.0463 223.951 93.1153 225.038C181.422 229.896 170.083 218.567 233.68 224.234C270.119 227.477 321.429 229.152 341.894 191.916C348.845 179.266 351.12 164.627 344.756 151.203C339.913 140.992 331.107 133.326 323.152 125.291C312.163 114.199 307.38 102.87 303.493 88.044C300.889 77.9847 298.265 67.9963 293.36 59.0856Z" fill="white"/>
<path d="M348.571 223.267H17.6875" stroke="#263238" stroke-linecap="round" stroke-linejoin="round"/>
<path d="M61.6919 185.049H31.6719L34.6764 224.568H58.6924L61.6919 185.049Z" fill="white" stroke="#263238" stroke-linecap="round" stroke-linejoin="round"/>
<path d="M34.2358 218.774L34.6766 224.568H58.6926L59.1284 218.774H34.2358Z" fill="#263238" stroke="#263238" stroke-linecap="round" stroke-linejoin="round"/>
<path d="M61.0991 192.882L61.6919 185.049H31.6719L32.2697 192.882H61.0991Z" fill="#263238" stroke="#263238" stroke-linecap="round" stroke-linejoin="round"/>
<path d="M57.7601 222.837L58.9153 221.957L58.966 221.284L57.5271 222.382C57.1623 221.663 56.7772 220.899 56.3719 220.09L58.4289 218.511C58.6519 218.961 58.8647 219.391 59.0775 219.811L59.1535 218.83C59.0471 218.617 58.9407 218.415 58.8343 218.197L59.2244 217.894L59.2751 217.211L58.6063 217.717L57.4663 215.399C58.1587 214.856 58.8343 214.32 59.4929 213.79V213.831L59.5689 212.819L58.5556 210.653L59.8324 209.641L59.8881 208.948L58.3327 210.203C57.9746 209.44 57.6065 208.652 57.2281 207.839C57.9223 207.278 58.6012 206.731 59.2548 206.19L59.9743 207.733L60.0503 206.721L59.6601 205.876C59.8273 205.745 59.9844 205.608 60.1668 205.476L60.2225 204.778L59.4625 205.401C59.1028 204.621 58.7431 203.827 58.3732 203.012C59.0724 202.435 59.748 201.874 60.3999 201.327L60.4759 201.489L60.5569 200.432C60.2124 199.663 59.8679 198.883 59.5436 198.084L60.8457 196.981L60.8964 196.267L59.2801 197.583C58.9424 196.777 58.5911 195.962 58.2263 195.139C58.9305 194.537 59.6044 193.96 60.2529 193.408C60.486 193.96 60.7191 194.496 60.9471 195.038L61.0332 193.945L60.6532 193.059L61.1295 192.644L61.1852 191.926L60.4455 192.568C60.1009 191.754 59.7615 190.929 59.4321 190.094L61.4588 188.283L61.5145 187.549C60.8305 188.161 60.0655 188.844 59.2041 189.598C58.8697 188.773 58.5303 187.939 58.1908 187.099C59.0623 186.329 59.8223 185.641 60.4809 185.049H59.726L57.9932 186.598C57.7855 186.092 57.5879 185.586 57.3852 185.049H56.838C57.0863 185.687 57.3447 186.324 57.5879 186.952L55.5612 188.713C55.2234 187.883 54.8857 187.04 54.5479 186.183C55.014 185.783 55.4447 185.403 55.8601 185.034H55.0951L54.3908 185.702L54.1425 185.054H53.6004C53.7271 185.388 53.8537 185.727 53.9855 186.066L51.9588 187.812C51.621 186.979 51.2985 186.135 50.9911 185.282L51.2495 185.054H50.3729L50.4033 185.13L48.3767 186.861C48.1487 186.264 47.9257 185.656 47.7028 185.054H47.1607C47.4292 185.773 47.6977 186.496 47.9663 187.205C47.3127 187.756 46.6337 188.328 45.9396 188.91C45.6255 188.08 45.3113 187.237 44.9972 186.38L46.5831 185.039H45.7927L44.7793 185.874L44.4804 185.039H43.9585C44.1055 185.434 44.2423 185.828 44.3892 186.218L42.3625 187.913C42.0535 187.073 41.7444 186.233 41.4404 185.383L41.8559 185.039H40.7665L40.8273 185.221C40.1636 185.768 39.4847 186.329 38.8007 186.901C38.5777 186.289 38.37 185.656 38.1521 185.039H37.5948C37.8532 185.773 38.1015 186.517 38.3649 187.24C37.6961 187.782 37.0071 188.338 36.3028 188.9C35.8468 187.625 35.4009 186.334 34.9551 185.039H34.418C34.8993 186.446 35.3908 187.847 35.8873 189.234C35.2118 189.77 34.5227 190.313 33.8201 190.863C33.126 188.951 32.4521 187.002 31.7935 185.039H31.6719L31.7935 186.628C32.3204 188.166 32.8558 189.684 33.3996 191.182C33.0095 191.486 32.6092 191.799 32.2089 192.103L32.2596 192.71L33.582 191.698C33.886 192.531 34.1934 193.359 34.5041 194.183C33.8404 194.689 33.1716 195.195 32.4775 195.736L32.6295 197.76C32.7967 198.19 32.9588 198.625 33.1361 199.05C33.0145 199.146 32.8828 199.243 32.7561 199.334L32.8017 199.931L33.3084 199.541C33.6259 200.361 33.9468 201.17 34.2711 201.97L33.0297 202.906L33.0753 203.498L34.4889 202.456C34.8132 203.265 35.1425 204.07 35.4719 204.859C34.7828 205.365 34.0836 205.871 33.3793 206.377C33.3439 206.296 33.3084 206.21 33.278 206.124L33.3996 207.733C33.6529 208.34 33.9063 208.948 34.1596 209.54L33.5668 209.965L33.6124 210.552L34.3623 210.015C34.7017 210.815 35.0463 211.599 35.3756 212.373L33.8556 213.471L33.9012 214.058L35.6087 212.849C35.9465 213.642 36.2927 214.421 36.6473 215.187C35.9532 215.693 35.2489 216.173 34.5345 216.669C34.3623 216.275 34.1849 215.87 34.0279 215.475L34.1849 217.54L34.3471 217.428C34.6849 218.218 35.0345 218.988 35.3959 219.741L34.3825 220.414L34.4281 220.995L35.5935 220.206C35.9549 220.989 36.3113 221.754 36.6625 222.503C35.9937 222.954 35.3199 223.409 34.6359 223.859L34.6916 224.553H34.8132C34.8132 224.497 34.7676 224.451 34.7423 224.396L36.8753 222.964C37.1287 223.505 37.382 224.031 37.6303 224.553H38.1876L37.2959 222.675C38.0086 222.19 38.7145 221.704 39.4137 221.218C39.7887 222.002 40.1484 222.766 40.5031 223.505L38.9831 224.553H39.8799L40.7311 223.971L41.0148 224.553H41.5468L41.1212 223.677C41.8305 223.171 42.5348 222.691 43.234 222.2C43.6157 222.989 43.9856 223.75 44.3436 224.482L44.2423 224.553H45.1239L47.1201 223.171L47.8143 224.568H48.3767C48.1031 224.021 47.8295 223.46 47.5407 222.873L49.6281 221.355C50.0183 222.154 50.3983 222.913 50.758 223.642L49.4761 224.568H50.3425L50.986 224.097L51.2241 224.568H51.7916C51.6649 224.315 51.5383 224.062 51.4015 223.799L53.4788 222.281C53.8841 223.09 54.2692 223.849 54.634 224.558L54.6036 224.583H55.4548L57.3497 223.166C57.6031 223.672 57.8564 224.138 58.0793 224.583H58.6519C58.3428 224.031 58.0489 223.455 57.7601 222.837ZM58.1959 218.051C57.5203 218.57 56.8346 219.096 56.1388 219.629C55.774 218.896 55.3991 218.111 55.0039 217.322C55.7031 216.786 56.3871 216.259 57.0609 215.733C57.4359 216.539 57.8057 217.312 58.1705 218.051H58.1959ZM45.3823 204.93L43.3151 206.524C42.9756 205.735 42.6311 204.94 42.3017 204.131L44.3689 202.532C44.6983 203.351 45.0377 204.156 45.3823 204.93ZM44.7641 202.208C45.4633 201.661 46.1524 201.12 46.8212 200.583C47.159 201.403 47.4968 202.208 47.8345 202.997C47.1657 203.528 46.4767 204.07 45.7775 204.611L44.7641 202.208ZM45.6001 205.436C45.9379 206.246 46.2858 207.04 46.6439 207.819L44.5868 209.383C44.2423 208.609 43.8927 207.814 43.5431 207.01C44.2389 206.48 44.9246 205.955 45.6001 205.436ZM46.0105 205.117C46.7097 204.576 47.3988 204.034 48.0676 203.503L49.1164 205.902C48.4425 206.408 47.7585 206.964 47.0593 207.5C46.6996 206.706 46.3551 205.912 46.0004 205.102L46.0105 205.117ZM48.478 203.179C49.1772 202.629 49.8528 202.085 50.5047 201.545C50.8593 202.359 51.2089 203.164 51.5535 203.948L49.5268 205.578L48.478 203.179ZM49.3292 206.377L50.3932 208.755L48.3361 210.344C47.9815 209.57 47.6268 208.786 47.2671 207.976C47.9561 207.425 48.6401 206.888 49.3191 206.362L49.3292 206.377ZM49.7396 206.053C50.4321 205.507 51.1076 204.965 51.7663 204.429C52.126 205.239 52.4807 206.038 52.8353 206.817C52.1598 207.347 51.4842 207.885 50.8087 208.432C50.4506 207.649 50.0909 206.851 49.7295 206.038L49.7396 206.053ZM52.1969 204.1C52.8928 203.544 53.5683 202.995 54.2236 202.456C54.585 203.272 54.9414 204.071 55.2927 204.854C54.6171 205.39 53.9416 205.935 53.266 206.488C52.908 205.699 52.5482 204.898 52.1868 204.085L52.1969 204.1ZM51.9841 203.625L50.9353 201.216C51.6345 200.654 52.3135 200.098 52.962 199.556C53.3167 200.376 53.668 201.182 54.0159 201.975C53.3521 202.501 52.6935 203.048 51.974 203.609L51.9841 203.625ZM50.7276 200.73C50.3898 199.937 50.0521 199.13 49.7143 198.306C50.4135 197.74 51.089 197.183 51.7409 196.637C52.0855 197.461 52.43 198.271 52.7543 199.076C52.0956 199.605 51.4167 200.152 50.7175 200.715L50.7276 200.73ZM50.3172 201.064C49.6417 201.6 48.9661 202.145 48.2905 202.699C47.9528 201.906 47.615 201.1 47.2772 200.28C47.9764 199.723 48.652 199.175 49.3039 198.635C49.6231 199.445 49.9676 200.249 50.3071 201.049L50.3172 201.064ZM47.0391 199.799C46.7047 198.995 46.3652 198.185 46.0257 197.36L48.0524 195.706C48.3919 196.53 48.7263 197.345 49.0657 198.15C48.4105 198.679 47.7315 199.224 47.0289 199.784L47.0391 199.799ZM46.6287 200.128L44.5868 201.732C44.249 200.939 43.9113 200.131 43.5735 199.308L45.6001 197.679C45.9447 198.499 46.2841 199.308 46.6135 200.113L46.6287 200.128ZM44.1612 202.071C43.4857 202.601 42.7966 203.134 42.094 203.67C41.7596 202.876 41.4252 202.076 41.0807 201.261L43.1428 199.652C43.4772 200.452 43.8116 201.261 44.1511 202.056L44.1612 202.071ZM40.8881 200.776C40.5504 199.973 40.2126 199.162 39.8748 198.342L41.9369 196.723C42.2747 197.542 42.6125 198.355 42.9503 199.162C42.2663 199.678 41.5772 200.219 40.878 200.761L40.8881 200.776ZM41.6785 203.989L39.6063 205.568C39.2719 204.778 38.9375 203.974 38.5929 203.164C39.2972 202.633 39.9863 202.107 40.6703 201.58C41.0013 202.386 41.334 203.184 41.6684 203.974L41.6785 203.989ZM41.8812 204.47C42.219 205.279 42.5568 206.077 42.8945 206.863C42.2105 207.369 41.5215 207.905 40.8172 208.426C40.4794 207.647 40.1417 206.854 39.8039 206.048C40.5031 205.509 41.1921 204.977 41.8711 204.454L41.8812 204.47ZM43.1175 207.339C43.4671 208.143 43.8167 208.938 44.1612 209.712C43.4772 210.218 42.7881 210.749 42.0839 211.27C41.7461 210.498 41.3982 209.71 41.0401 208.907C41.7343 208.366 42.4233 207.845 43.1073 207.323L43.1175 207.339ZM44.374 210.187L45.438 212.54C44.7625 213.056 44.0683 213.572 43.3556 214.089C43.0178 213.326 42.6649 212.544 42.2967 211.741L44.374 210.187ZM44.7895 209.874L46.8567 208.295L47.9207 210.663L45.8535 212.232C45.4887 211.447 45.1391 210.658 44.7793 209.858L44.7895 209.874ZM48.1335 211.118C48.4983 211.918 48.858 212.7 49.2127 213.466C48.5337 213.972 47.8396 214.504 47.1404 215.025C46.7891 214.266 46.4277 213.486 46.0561 212.687L48.1335 211.118ZM48.5439 210.805L50.606 209.211C50.9708 210.015 51.3305 210.805 51.6852 211.569C51.0113 212.075 50.3223 212.621 49.6281 213.152C49.2667 212.393 48.9036 211.611 48.5388 210.805H48.5439ZM51.0164 208.892L53.0431 207.278L54.1273 209.646C53.4518 210.172 52.7762 210.707 52.1007 211.25C51.7393 210.481 51.3761 209.695 51.0113 208.892H51.0164ZM54.3705 210.116C54.7404 210.921 55.1103 211.705 55.47 212.469C54.8012 212.975 54.1121 213.527 53.4433 214.063C53.0836 213.304 52.7137 212.545 52.3439 211.721L54.3705 210.116ZM53.4687 206.954L55.4953 205.32C55.8601 206.129 56.2216 206.922 56.5796 207.698C55.9159 208.234 55.2319 208.776 54.5529 209.327C54.2135 208.548 53.8335 207.759 53.4687 206.954ZM54.634 202.112C55.3298 201.545 56.0054 200.988 56.6607 200.442C57.0221 201.261 57.3785 202.064 57.7297 202.85C57.0711 203.392 56.3972 203.948 55.7031 204.515C55.3484 203.721 54.9887 202.906 54.634 202.107V202.112ZM54.4212 201.631C54.0834 200.835 53.7338 200.029 53.3724 199.212L55.3991 197.532C55.7487 198.352 56.1033 199.167 56.4479 199.961C55.7943 200.502 55.1153 201.059 54.4212 201.626V201.631ZM54.5681 194.253L56.5948 192.538C56.9393 193.368 57.2839 194.193 57.6081 195.002L55.5815 196.707C55.2521 195.893 54.9127 195.078 54.5681 194.248V194.253ZM55.1913 197.047L53.1647 198.726C52.8269 197.927 52.4891 197.114 52.1513 196.288L54.178 194.597C54.5023 195.417 54.8468 196.237 55.1913 197.041V197.047ZM51.9284 195.822C51.594 195.012 51.2545 194.193 50.9151 193.363L52.9417 191.658C53.2761 192.487 53.6156 193.312 53.9551 194.127C53.3065 194.653 52.6276 195.215 51.9284 195.822ZM51.5231 196.161L49.4964 197.826C49.1569 197.021 48.8225 196.207 48.4831 195.382L50.5097 193.702C50.8492 194.506 51.1735 195.316 51.5231 196.136V196.161ZM48.2753 194.891C47.9376 194.075 47.5998 193.252 47.262 192.422C47.9612 191.84 48.6401 191.278 49.2887 190.727C49.618 191.561 49.9473 192.391 50.302 193.206C49.6535 193.732 48.9745 194.304 48.2753 194.866V194.891ZM47.8649 195.225L45.8383 196.885C45.5039 196.07 45.1745 195.255 44.8249 194.425L46.8516 192.756C47.2063 193.565 47.5356 194.385 47.8649 195.2V195.225ZM45.4076 197.213C44.7321 197.75 44.0481 198.295 43.3556 198.848C43.0178 198.042 42.6885 197.227 42.3676 196.404L44.3943 194.759C44.7388 195.569 45.0766 196.379 45.4076 197.188V197.213ZM42.17 195.913C41.8457 195.098 41.5265 194.274 41.2023 193.444C41.9065 192.882 42.5855 192.331 43.2543 191.789C43.5785 192.624 43.8977 193.449 44.222 194.269L42.17 195.913ZM41.7545 196.242L39.6975 197.846C39.3597 197.036 39.0371 196.218 38.7297 195.392C39.4289 194.84 40.118 194.299 40.7919 193.758C41.1111 194.577 41.4353 195.402 41.7545 196.217V196.242ZM38.5372 194.911C38.2231 194.097 37.9089 193.267 37.5948 192.437C38.294 191.88 38.9831 191.334 39.6519 190.792C39.966 191.629 40.2818 192.459 40.5993 193.282C39.9255 193.798 39.2364 194.339 38.5372 194.886V194.911ZM38.1217 195.24L36.0545 196.834C35.737 196.018 35.4212 195.196 35.1071 194.37L37.1793 192.751C37.4935 193.57 37.8076 194.395 38.1217 195.215V195.24ZM38.3143 195.746C38.6335 196.576 38.9577 197.391 39.282 198.2L37.2097 199.799C36.8855 198.995 36.5663 198.18 36.242 197.355C36.948 196.788 37.6387 196.239 38.3143 195.706V195.746ZM39.4745 198.691C39.8123 199.511 40.1501 200.32 40.4879 201.12C39.8089 201.626 39.1148 202.172 38.4156 202.709C38.0778 201.909 37.7401 201.101 37.4023 200.285C38.1082 199.722 38.799 199.177 39.4745 198.651V198.691ZM39.1807 205.907C38.5051 206.423 37.8093 206.939 37.0932 207.455C36.7554 206.672 36.4177 205.876 36.0799 205.067C36.7825 204.547 37.4766 204.028 38.1623 203.508C38.5068 204.277 38.8463 205.077 39.1807 205.866V205.907ZM39.3833 206.387L40.3967 208.765L38.3092 210.309C37.9697 209.53 37.6303 208.735 37.2959 207.936L39.3833 206.387ZM40.6145 209.241C40.9523 210.041 41.3002 210.828 41.6583 211.604C40.9692 212.11 40.2751 212.616 39.5657 213.122C39.2263 212.353 38.8767 211.569 38.5524 210.769C39.2313 210.228 39.9255 209.712 40.6145 209.201V209.241ZM40.4169 216.244C39.7228 216.75 39.0236 217.256 38.3143 217.762C37.9697 217.003 37.6151 216.244 37.2604 215.44C37.9697 214.937 38.6689 214.431 39.358 213.922C39.7177 214.665 40.0724 215.44 40.4169 216.204V216.244ZM39.7785 213.608C40.4811 213.099 41.1786 212.593 41.8711 212.09C42.2089 212.889 42.5618 213.67 42.93 214.433C42.2409 214.939 41.5417 215.445 40.8375 215.951C40.4879 215.136 40.1383 214.362 39.7785 213.567V213.608ZM43.1428 214.888C43.5076 215.682 43.8673 216.462 44.222 217.216C43.5329 217.722 42.8337 218.228 42.1295 218.734C41.7748 217.965 41.4117 217.177 41.0401 216.371C41.7596 215.86 42.4537 215.354 43.1428 214.848V214.888ZM43.5735 214.544C44.2727 214.028 44.9651 213.512 45.6508 212.996C46.0156 213.795 46.3753 214.574 46.73 215.333C46.046 215.839 45.3519 216.345 44.6476 216.851C44.2862 216.106 43.9281 215.337 43.5735 214.544ZM46.9529 215.804C47.3211 216.6 47.6859 217.373 48.0473 218.121C47.3633 218.627 46.6641 219.133 45.9649 219.639C45.6052 218.896 45.2404 218.121 44.8655 217.327C45.5647 216.821 46.2571 216.313 46.9428 215.804H46.9529ZM47.3633 215.495C48.0659 214.976 48.7567 214.456 49.4356 213.937C49.8105 214.736 50.177 215.512 50.5351 216.264C49.8561 216.77 49.162 217.276 48.4628 217.818C48.098 217.066 47.7281 216.291 47.3532 215.495H47.3633ZM49.8511 213.623C50.5503 213.092 51.2343 212.56 51.9132 212.039C52.2831 212.839 52.6529 213.623 53.0127 214.382L50.9505 215.956C50.5807 215.202 50.2108 214.423 49.8409 213.623H49.8511ZM53.2356 214.848C53.6156 215.647 53.9905 216.426 54.3553 217.17C53.6798 217.693 52.9907 218.214 52.2881 218.734C51.9284 217.99 51.5535 217.216 51.1735 216.421C51.8625 215.895 52.5465 215.369 53.2255 214.848H53.2356ZM53.646 214.534L55.6727 212.935C56.0544 213.741 56.4276 214.519 56.7924 215.268C56.1169 215.794 55.4329 216.323 54.7404 216.856C54.3891 216.108 54.0209 215.337 53.6359 214.544L53.646 214.534ZM59.27 213.34C58.5945 213.873 57.9189 214.409 57.2433 214.949C56.8785 214.2 56.5053 213.422 56.1236 212.616L58.1503 210.997C58.5201 211.801 58.8951 212.586 59.2801 213.34H59.27ZM57.9273 210.526L55.9007 212.146C55.5409 211.381 55.1711 210.602 54.7961 209.793C55.4903 209.246 56.1743 208.7 56.8228 208.168L57.9273 210.526ZM59.042 205.714C58.3665 206.254 57.6909 206.804 57.0153 207.364C56.6607 206.59 56.2959 205.795 55.9311 204.986L57.9577 203.326C58.3158 204.142 58.6738 204.938 59.0319 205.714H59.042ZM60.1668 200.826C59.5183 201.373 58.8393 201.934 58.1401 202.511C57.8024 201.722 57.446 200.919 57.0711 200.103L59.0977 198.408C59.4473 199.227 59.7868 200.037 60.1567 200.826H60.1668ZM58.8849 197.922C58.2364 198.473 57.5625 199.035 56.8583 199.617C56.5137 198.823 56.1591 198.008 55.8095 197.188L57.8361 195.483C58.1807 196.309 58.5269 197.122 58.8748 197.922H58.8849ZM60.0401 192.923L58.0135 194.653L57.0001 192.189L59.0268 190.443C59.3511 191.283 59.6855 192.11 60.03 192.923H60.0401ZM57.7601 187.453C58.0996 188.293 58.434 189.128 58.7735 189.952C58.1452 190.499 57.4764 191.086 56.7468 191.693C56.4073 190.873 56.0679 190.049 55.7335 189.209C56.4884 188.586 57.1572 188.004 57.7601 187.453ZM56.3617 192.042L54.3351 193.758C53.9956 192.943 53.6612 192.118 53.3217 191.288L55.3484 189.558C55.7335 190.398 56.0425 191.222 56.382 192.042H56.3617ZM54.1577 186.552C54.4955 187.399 54.8333 188.242 55.1711 189.082L53.1444 190.813C52.8066 189.989 52.4689 189.158 52.1311 188.318L54.1577 186.552ZM52.7239 191.136C52.0753 191.686 51.3998 192.255 50.6972 192.842C50.3679 192.022 50.0385 191.197 49.7092 190.357C50.4135 189.77 51.0873 189.193 51.7359 188.642C52.0855 189.482 52.4148 190.317 52.7441 191.136H52.7239ZM50.5705 185.626C50.8948 186.471 51.214 187.311 51.5383 188.156C50.8948 188.708 50.2159 189.279 49.5116 189.871C49.1873 189.047 48.8631 188.207 48.5388 187.341L50.5705 185.626ZM48.1385 187.701C48.4729 188.547 48.809 189.382 49.1468 190.205L47.1201 191.9C46.7959 191.076 46.4767 190.246 46.1524 189.406C46.8263 188.824 47.5052 188.232 48.1588 187.726L48.1385 187.701ZM46.6591 192.255L44.6324 193.924C44.2946 193.105 43.9721 192.277 43.6647 191.44C44.3639 190.868 45.0428 190.312 45.6913 189.76C46.0257 190.59 46.3551 191.416 46.6793 192.24L46.6591 192.255ZM44.5868 186.714C44.8959 187.559 45.2151 188.399 45.5292 189.244C44.8705 189.79 44.195 190.35 43.5025 190.924C43.1884 190.094 42.8692 189.259 42.5601 188.419L44.5868 186.714ZM43.0668 191.268L41.0401 192.923C40.7193 192.1 40.4034 191.27 40.0927 190.433C40.7953 189.866 41.4708 189.31 42.1193 188.763C42.4335 189.603 42.7493 190.438 43.0668 191.268ZM41.0097 185.737C41.3137 186.582 41.6228 187.427 41.9319 188.267C41.2563 188.814 40.5723 189.37 39.8799 189.937C39.5708 189.102 39.2668 188.267 38.9628 187.407L41.0097 185.737ZM38.5423 187.761C38.8513 188.601 39.1553 189.441 39.4644 190.291C38.7956 190.833 38.1065 191.384 37.4073 191.936C37.0966 191.113 36.7892 190.28 36.4852 189.436L38.5423 187.761ZM33.9823 191.379C34.6849 190.829 35.3739 190.286 36.0495 189.75C36.3535 190.59 36.6625 191.42 36.9716 192.25L34.9044 193.869C34.6038 193.042 34.3032 192.211 34.0025 191.374L33.9823 191.379ZM32.594 196.282L34.6713 194.689C34.9855 195.518 35.2996 196.34 35.6137 197.153C34.9348 197.659 34.2407 198.205 33.5364 198.737C33.2358 197.924 32.9284 197.104 32.6143 196.277L32.594 196.282ZM33.7289 199.227L35.8063 197.644C36.1255 198.463 36.4497 199.278 36.7689 200.083C36.0934 200.602 35.4009 201.127 34.6916 201.656C34.3809 200.85 34.0667 200.039 33.7492 199.222L33.7289 199.227ZM34.8892 202.142L36.9665 200.568C37.2959 201.383 37.6252 202.193 37.9799 202.987C37.3043 203.51 36.6102 204.031 35.8975 204.55C35.5631 203.754 35.2337 202.95 34.9095 202.137L34.8892 202.142ZM33.5567 206.878C34.266 206.372 34.9601 205.866 35.6492 205.36C35.9836 206.165 36.3231 206.959 36.6625 207.743C35.9735 208.249 35.2743 208.755 34.57 209.261C34.2424 208.475 33.9113 207.679 33.5769 206.873L33.5567 206.878ZM34.7625 209.732C35.4719 209.226 36.166 208.72 36.8601 208.214C37.1996 209.013 37.5441 209.803 37.8735 210.582C37.1979 211.088 36.4987 211.594 35.7759 212.1L34.7625 209.732ZM35.9887 212.566C36.698 212.06 37.3972 211.554 38.0863 211.048C38.4241 211.844 38.772 212.626 39.13 213.395C38.4359 213.901 37.7367 214.407 37.0273 214.913C36.7081 214.139 36.3585 213.355 36.0089 212.56L35.9887 212.566ZM34.7068 217.155C35.4161 216.649 36.1204 216.168 36.8196 215.677C37.1743 216.467 37.5289 217.241 37.8735 218L35.7607 219.472C35.4313 218.708 35.0817 217.939 34.7271 217.15L34.7068 217.155ZM37.0425 222.215L35.9735 219.933L38.0913 218.46C38.4511 219.25 38.8108 220.019 39.1604 220.768C38.5068 221.254 37.7772 221.744 37.0628 222.23L37.0425 222.215ZM38.5119 218.167C39.2161 217.661 39.9204 217.155 40.6145 216.649C40.9793 217.443 41.334 218.212 41.6887 218.966C40.9962 219.462 40.2937 219.958 39.5809 220.454C39.2516 219.725 38.8919 218.956 38.5321 218.167H38.5119ZM40.8932 223.227C40.5335 222.488 40.1737 221.709 39.8039 220.94L41.9065 219.452C42.2747 220.242 42.6395 221.009 43.0009 221.754L40.8932 223.227ZM42.3271 219.154C43.0313 218.648 43.7305 218.142 44.4196 217.636L45.514 219.948C44.8385 220.451 44.1393 220.957 43.4164 221.466C43.0753 220.717 42.7189 219.946 42.3473 219.154H42.3271ZM44.7489 224.214C44.3892 223.48 44.0193 222.721 43.6393 221.927C44.3487 221.424 45.0479 220.918 45.7369 220.409C46.1169 221.203 46.4919 221.967 46.8516 222.706C46.1777 223.207 45.4785 223.708 44.7692 224.204L44.7489 224.214ZM47.2823 222.417C46.9242 221.682 46.5544 220.918 46.1727 220.125C46.8719 219.619 47.5711 219.113 48.2551 218.607C48.6351 219.402 49.01 220.176 49.3697 220.915L47.2823 222.417ZM48.6705 218.293C49.3697 217.787 50.0639 217.256 50.7428 216.74C51.1279 217.539 51.4977 218.314 51.8625 219.058L49.7852 220.576C49.4305 219.847 49.0556 219.098 48.6756 218.283L48.6705 218.293ZM51.1431 223.353C50.7783 222.625 50.4033 221.861 50.0081 221.066C50.7124 220.56 51.4015 220.054 52.0855 219.523C52.4807 220.322 52.8556 221.092 53.2204 221.82C52.5313 222.323 51.849 222.829 51.1735 223.338L51.1431 223.353ZM52.5009 219.214L54.5631 217.651C54.9583 218.455 55.3332 219.224 55.698 219.958L53.6359 221.512C53.2761 220.768 52.8961 219.999 52.506 219.199L52.5009 219.214ZM55.0343 224.274C54.6729 223.559 54.2895 222.799 53.8841 221.992C54.5833 221.473 55.2724 220.955 55.9513 220.439C56.3567 221.248 56.7417 222.011 57.1065 222.726C56.4141 223.219 55.7183 223.723 55.0191 224.239L55.0343 224.274Z" fill="#263238"/>
<path d="M276.523 17.1179H41.6328V126.712H276.523V17.1179Z" fill="white" stroke="#263238" stroke-linecap="round" stroke-linejoin="round"/>
<path d="M276.523 126.712H41.6328V130.396H276.523V126.712Z" fill="white" stroke="#263238" stroke-linecap="round" stroke-linejoin="round"/>
<path d="M273.544 19.5822H44.6172V124.243H273.544V19.5822Z" fill="#BFBFBF" stroke="#263238" stroke-linecap="round" stroke-linejoin="round"/>
<path d="M44.6172 19.5822V20.245H272.749V124.248H273.539V19.5822H44.6172Z" fill="#263238" stroke="#263238" stroke-linecap="round" stroke-linejoin="round"/>
<path d="M176.533 25.1229H51.1885V101.296H176.533V25.1229Z" fill="white"/>
<path d="M180.774 95.5227L169.951 105.8L167.286 103.325L178.413 93.5038L180.774 95.5227Z" fill="#DBDBDB"/>
<path d="M169.156 23.438L177.835 35.5718L180.921 33.644L171.856 21.8947L169.156 23.438Z" fill="#DBDBDB"/>
<path d="M47.6723 32.9103L60.0704 24.5967L58.2312 21.4595L46.208 30.1728L47.6723 32.9103Z" fill="#DBDBDB"/>
<path d="M57.3192 105.627L47.0693 94.7839L49.5571 92.1324L59.356 103.28L57.3192 105.627Z" fill="#DBDBDB"/>
<path d="M128.486 91.8946L127.32 54.8149H124.985L123.819 91.8946" fill="white"/>
<path d="M128.486 91.8946L127.32 54.8149H124.985L123.819 91.8946" stroke="#263238" stroke-linecap="round" stroke-linejoin="round"/>
<path d="M123.196 55.913L128.08 56.7782V52.5835L123.196 53.4488C122.91 53.5051 122.652 53.6591 122.467 53.8844C122.282 54.1097 122.182 54.3921 122.183 54.6834C122.182 54.974 122.283 55.2558 122.468 55.4802C122.653 55.7046 122.91 55.8577 123.196 55.913Z" fill="white" stroke="#263238" stroke-linecap="round" stroke-linejoin="round"/>
<path d="M127.437 52.5835L122.37 30.0108C122.37 30.0108 123.642 28.5788 124.437 30.9621C125.233 33.3454 130.487 47.3363 130.168 48.4495C129.849 49.5627 128.095 51.1515 128.095 51.1515L128.602 53.6815H127.011L127.437 52.5835Z" fill="white" stroke="#263238" stroke-linecap="round" stroke-linejoin="round"/>
<path d="M127.295 57.2741L114.937 76.8412C114.937 76.8412 113.027 76.9575 114.147 74.7109C115.267 72.4643 121.418 58.8427 122.426 58.276C123.434 57.7093 125.805 57.8156 125.805 57.8156L127.259 55.6752L128.389 56.7985L127.295 57.2741Z" fill="white" stroke="#263238" stroke-linecap="round" stroke-linejoin="round"/>
<path d="M128.729 55.0426L151.529 59.0603C151.529 59.0603 152.36 60.7807 149.852 60.5783C147.344 60.3759 132.392 59.8598 131.485 59.1412C130.578 58.4227 129.783 56.1963 129.783 56.1963L127.25 55.6549L127.863 54.1875L128.729 55.0426Z" fill="white" stroke="#263238" stroke-linecap="round" stroke-linejoin="round"/>
<path d="M130.31 54.815C130.31 55.2565 130.178 55.6881 129.933 56.0552C129.687 56.4223 129.338 56.7083 128.929 56.877C128.521 57.0458 128.071 57.0897 127.637 57.0032C127.204 56.9167 126.806 56.7036 126.493 56.391C126.181 56.0785 125.969 55.6804 125.883 55.2472C125.797 54.814 125.842 54.3652 126.012 53.9575C126.182 53.5498 126.469 53.2017 126.838 52.9571C127.206 52.7125 127.638 52.5825 128.08 52.5835C128.373 52.5835 128.664 52.6413 128.935 52.7535C129.205 52.8657 129.451 53.0301 129.658 53.2374C129.866 53.4447 130.03 53.6907 130.141 53.9614C130.253 54.2321 130.31 54.5222 130.31 54.815Z" fill="white" stroke="#263238" stroke-linecap="round" stroke-linejoin="round"/>
<path d="M137.874 43.6071C139.982 43.6071 142.095 45.6311 144.202 45.6311C146.31 45.6311 148.423 43.6071 150.536 43.6071C152.648 43.6071 154.756 45.6311 156.864 45.6311C158.972 45.6311 161.084 43.6071 163.192 43.6071C165.3 43.6071 167.413 45.6311 169.525 45.6311" stroke="#263238" stroke-linecap="round" stroke-linejoin="round"/>
<path d="M137.874 52.791C139.982 52.791 142.095 54.815 144.202 54.815C146.31 54.815 148.423 52.791 150.536 52.791C152.648 52.791 154.756 54.815 156.864 54.815C158.972 54.815 161.084 52.791 163.192 52.791C165.3 52.791 167.413 54.815 169.525 54.815" stroke="#263238" stroke-linecap="round" stroke-linejoin="round"/>
<path d="M137.874 61.9698C139.982 61.9698 142.095 63.9938 144.202 63.9938C146.31 63.9938 148.423 61.9698 150.536 61.9698C152.648 61.9698 154.756 63.9938 156.864 63.9938C158.972 63.9938 161.084 61.9698 163.192 61.9698C165.3 61.9698 167.413 63.9938 169.525 63.9938" stroke="#263238" stroke-linecap="round" stroke-linejoin="round"/>
<path d="M87.6533 56.1357C87.6543 54.2886 87.2112 52.4684 86.3612 50.8279C85.5113 49.1874 84.2794 47.7748 82.7691 46.7087C81.2588 45.6426 79.5142 44.9542 77.6821 44.7014C75.8501 44.4487 73.984 44.6389 72.2408 45.2562C70.4977 45.8734 68.9284 46.8996 67.665 48.2485C66.4015 49.5974 65.4808 51.2295 64.9803 53.0077C64.4798 54.7858 64.4142 56.658 64.7888 58.4667C65.1635 60.2755 65.9675 61.968 67.1333 63.4019C68.4169 64.9391 69.1324 66.8703 69.16 68.8717V69.3777C69.16 70.1829 69.4803 70.9551 70.0504 71.5245C70.6205 72.0938 71.3937 72.4137 72.2 72.4137H80.0533C80.8596 72.4137 81.6328 72.0938 82.2029 71.5245C82.773 70.9551 83.0933 70.1829 83.0933 69.3777V69.0488C83.1176 66.9676 83.8502 64.9565 85.1707 63.3462C86.7955 61.2947 87.6712 58.7513 87.6533 56.1357Z" fill="white" stroke="#263238" stroke-linecap="round" stroke-linejoin="round"/>
<path d="M82.374 73.4965H69.8594V75.8696H82.374V73.4965Z" fill="white" stroke="#263238" stroke-linecap="round" stroke-linejoin="round"/>
<path d="M82.374 76.5022H69.8594V78.8753H82.374V76.5022Z" fill="white" stroke="#263238" stroke-linecap="round" stroke-linejoin="round"/>
<path d="M79.2479 81.9923H72.9906L69.8594 79.6191H82.374L79.2479 81.9923Z" fill="white" stroke="#263238" stroke-linecap="round" stroke-linejoin="round"/>
<path d="M76.4355 35.9362V41.8361" stroke="#263238" stroke-linecap="round" stroke-linejoin="round"/>
<path d="M89.9385 57.679H95.6739" stroke="#263238" stroke-linecap="round" stroke-linejoin="round"/>
<path d="M55.8447 57.679H61.5802" stroke="#263238" stroke-linecap="round" stroke-linejoin="round"/>
<path d="M65.2944 46.552L61.2461 42.843" stroke="#263238" stroke-linecap="round" stroke-linejoin="round"/>
<path d="M87.0654 46.552L91.1188 42.843" stroke="#263238" stroke-linecap="round" stroke-linejoin="round"/>
<path d="M65.2944 66.2759L61.2461 69.9798" stroke="#263238" stroke-linecap="round" stroke-linejoin="round"/>
<path d="M87.0654 66.2759L91.1188 69.9798" stroke="#263238" stroke-linecap="round" stroke-linejoin="round"/>
<path d="M117.303 53.1249H107.489V50.2863L98.1514 57.3399L107.489 64.3986V61.5549H117.303V53.1249Z" fill="#EE742A"/>
<path d="M330.159 24.9458H286.718V80.6362H330.159V24.9458Z" stroke="#263238" stroke-linecap="round" stroke-linejoin="round"/>
<path d="M326.202 56.5455L319.996 66.5542C319.731 67.0082 319.346 67.38 318.883 67.6283C318.419 67.8767 317.896 67.9918 317.371 67.9608C316.038 67.9608 314.711 67.9608 313.252 67.9608V70.9311L313.049 70.9715C312.694 70.3593 312.33 69.742 311.975 69.1247C311.053 67.5206 310.126 65.9166 309.229 64.2974C309.165 64.1828 309.125 64.0561 309.113 63.9254C309.101 63.7947 309.116 63.6629 309.158 63.5384C310.43 61.1197 311.737 58.7213 313.13 56.1407V59.7738H319.089C317.538 57.0667 316.013 54.4102 314.458 51.6778L321.987 47.3262L326.202 54.9718V56.5455Z" fill="#EE742A"/>
<path d="M303.914 36.6445C304.248 36.7153 304.586 36.7626 304.927 36.7862C307.856 36.8368 310.784 36.8823 313.713 36.9026C314.289 36.8656 314.863 37.0002 315.363 37.2893C315.863 37.5784 316.265 38.0091 316.52 38.5268C317.133 39.6754 317.832 40.7735 318.546 41.9474L321.191 40.4294L321.298 40.5154L319.322 44.1131C318.739 45.1655 318.171 46.2231 317.568 47.2604C317.512 47.3683 317.435 47.4638 317.341 47.5412C317.247 47.6185 317.138 47.6762 317.021 47.7107C314.285 47.8676 311.549 47.989 308.752 47.9637L311.696 46.2332L308.656 41.0669C307.096 43.8803 305.581 46.5925 304.066 49.3198L296.466 45.1402C296.851 44.447 297.211 43.7892 297.57 43.1162C298.254 41.8867 298.989 40.6824 299.597 39.4174C299.883 38.7618 300.304 38.1735 300.832 37.6906C301.36 37.2077 301.983 36.841 302.662 36.6141L303.914 36.6445Z" fill="#EE742A"/>
<path d="M293.32 50.4431L290.675 48.8492V48.7125H293.608C294.941 48.7125 296.279 48.7834 297.601 48.7125C298.014 48.6465 298.437 48.7195 298.804 48.9201C299.171 49.1207 299.461 49.4376 299.628 49.8207C300.839 51.9459 302.161 54.0053 303.372 56.2013L300.332 54.3899L297.413 59.5409H306.731V68.2239H305.424C303.468 68.2239 301.507 68.2239 299.547 68.2239C298.783 68.2524 298.029 68.0554 297.377 67.6576C296.725 67.2598 296.206 66.6788 295.883 65.9874C294.363 63.0728 292.843 60.1583 291.323 57.269C290.976 56.7402 290.798 56.1191 290.81 55.4871C290.823 54.855 291.026 54.2415 291.394 53.727C292.043 52.7099 292.636 51.6119 293.32 50.4431Z" fill="#EE742A"/>
<path d="M294.267 30.7902H322.61" stroke="#263238" stroke-linecap="round" stroke-linejoin="round"/>
<path d="M301.968 72.3276H314.909" stroke="#263238" stroke-linecap="round" stroke-linejoin="round"/>
<path d="M293.497 76.3301H323.38" stroke="#263238" stroke-linecap="round" stroke-linejoin="round"/>
<path d="M327.854 139.975C327.861 139.959 327.861 139.941 327.854 139.924C327.848 139.908 327.835 139.895 327.819 139.889C327.803 139.882 327.784 139.882 327.768 139.889C327.752 139.895 327.739 139.908 327.733 139.924C325.767 144.625 324.214 149.487 323.091 154.456C321.954 159.422 321.098 164.448 320.528 169.51L320.163 173.32C320.107 173.958 320.041 174.59 319.996 175.228L319.889 177.135C319.834 178.411 319.758 179.665 319.722 180.961L319.758 184.786L319.798 186.699C319.829 187.336 319.874 187.974 319.915 188.611C320.011 189.882 320.092 191.141 320.209 192.422C320.452 194.952 320.832 197.482 321.222 200.012C321.224 200.027 321.232 200.042 321.244 200.052C321.257 200.062 321.272 200.068 321.288 200.067C321.305 200.067 321.322 200.06 321.334 200.048C321.347 200.036 321.354 200.019 321.354 200.002C321.354 198.726 321.293 197.472 321.262 196.186C321.232 194.901 321.115 193.656 321.136 192.386C321.156 191.116 321.11 189.856 321.095 188.591L321.06 186.694L321.09 184.796V181.006L321.191 177.216L321.232 175.319C321.257 174.686 321.303 174.054 321.338 173.426L321.571 169.636C322.004 164.591 322.721 159.573 323.72 154.608C324.671 149.62 326.054 144.724 327.854 139.975Z" fill="#263238"/>
<path d="M328.396 159.805C328.4 159.797 328.401 159.788 328.401 159.779C328.4 159.77 328.398 159.761 328.394 159.753C328.391 159.745 328.385 159.738 328.379 159.732C328.372 159.726 328.364 159.722 328.356 159.719C328.339 159.714 328.321 159.715 328.305 159.723C328.289 159.73 328.276 159.743 328.27 159.759C327.193 162.912 326.291 166.121 325.569 169.373C324.852 172.64 324.319 175.944 323.973 179.271C323.634 182.59 323.264 185.909 323.218 189.249C323.134 192.588 323.252 195.928 323.573 199.253C323.575 199.268 323.582 199.282 323.593 199.293C323.604 199.304 323.618 199.311 323.634 199.313C323.642 199.314 323.651 199.313 323.659 199.31C323.668 199.308 323.675 199.303 323.682 199.298C323.688 199.292 323.694 199.285 323.698 199.277C323.702 199.27 323.704 199.261 323.705 199.253C324.095 195.928 324.328 192.619 324.561 189.305C324.794 185.99 324.824 182.671 325.042 179.357C325.251 176.055 325.647 172.767 326.228 169.51C326.771 166.238 327.495 162.998 328.396 159.805Z" fill="#263238"/>
<path d="M339.406 166.778C339.394 166.766 339.377 166.759 339.36 166.759C339.343 166.759 339.327 166.766 339.315 166.778C336.561 168.544 334.08 170.704 331.953 173.189C330.883 174.436 329.92 175.772 329.075 177.181L328.482 178.299L328.021 179.453C327.864 179.838 327.729 180.232 327.616 180.632C327.499 181.027 327.362 181.416 327.256 181.816C326.414 184.986 325.904 188.235 325.736 191.511C325.574 194.771 325.696 198.038 326.101 201.277C326.104 201.292 326.111 201.306 326.122 201.316C326.133 201.327 326.147 201.335 326.162 201.337C326.17 201.338 326.179 201.337 326.187 201.334C326.196 201.332 326.203 201.327 326.21 201.322C326.216 201.316 326.222 201.309 326.226 201.301C326.23 201.294 326.232 201.285 326.233 201.277L327.074 191.607C327.408 188.409 327.611 185.196 328.3 182.074C328.386 181.684 328.497 181.305 328.599 180.92C328.688 180.534 328.801 180.154 328.938 179.782L329.328 178.664L329.835 177.606C330.6 176.201 331.483 174.864 332.475 173.609C334.439 171.045 336.767 168.781 339.386 166.889C339.396 166.885 339.406 166.878 339.413 166.87C339.421 166.861 339.426 166.85 339.428 166.839C339.43 166.828 339.429 166.816 339.425 166.805C339.421 166.795 339.415 166.785 339.406 166.778Z" fill="#263238"/>
<path d="M334.076 179.2C332.556 180.166 331.573 181.689 330.732 183.217C329.925 184.783 329.296 186.435 328.857 188.141C328.725 188.561 328.619 188.986 328.528 189.416L328.224 190.701C328.065 191.565 327.957 192.436 327.9 193.312C327.9 194.193 327.864 195.068 327.9 195.938C327.965 196.815 328.082 197.686 328.249 198.549C328.252 198.562 328.258 198.575 328.266 198.584C328.275 198.594 328.287 198.601 328.3 198.605C328.309 198.607 328.318 198.607 328.327 198.606C328.337 198.604 328.345 198.601 328.353 198.595C328.361 198.59 328.367 198.583 328.372 198.575C328.377 198.567 328.38 198.558 328.381 198.549C328.582 197.703 328.737 196.847 328.847 195.984C328.979 195.129 329.116 194.284 329.217 193.454C329.318 192.624 329.45 191.769 329.516 190.924C329.582 190.079 329.698 189.229 329.881 188.394C330.176 186.72 330.657 185.084 331.314 183.516C331.906 181.917 332.87 180.481 334.127 179.326C334.136 179.314 334.141 179.299 334.141 179.283C334.141 179.268 334.136 179.253 334.127 179.24C334.122 179.23 334.115 179.221 334.106 179.214C334.097 179.207 334.087 179.202 334.076 179.2Z" fill="#263238"/>
<path d="M318.643 188.885C318.278 184.589 317.569 180.343 316.9 176.093C316.231 171.843 315.486 167.612 314.711 163.387C313.936 159.162 313.059 154.952 312.147 150.737C312.146 150.729 312.143 150.721 312.139 150.713C312.134 150.706 312.128 150.7 312.121 150.695C312.114 150.69 312.105 150.687 312.097 150.686C312.088 150.684 312.08 150.685 312.071 150.687C312.063 150.688 312.054 150.691 312.047 150.695C312.039 150.7 312.033 150.706 312.027 150.713C312.022 150.72 312.018 150.728 312.016 150.737C312.014 150.745 312.014 150.754 312.016 150.763C312.755 154.993 313.419 159.238 314.042 163.483C314.665 167.729 315.294 171.974 315.831 176.23C316.368 180.485 316.768 184.756 317.3 189.006L318.871 201.783C318.872 201.799 318.88 201.815 318.892 201.826C318.904 201.837 318.92 201.843 318.937 201.843C318.946 201.844 318.955 201.843 318.963 201.84C318.972 201.837 318.98 201.832 318.986 201.826C318.993 201.82 318.998 201.812 319.002 201.804C319.006 201.796 319.008 201.787 319.008 201.778C319.058 200.705 319.058 199.627 319.084 198.549C319.109 197.472 319.038 196.394 319.023 195.316C318.987 193.176 318.8 191.03 318.643 188.885Z" fill="#263238"/>
<path d="M316.064 188.819C315.836 187.119 315.522 185.434 315.198 183.759L314.595 181.229C314.397 180.394 314.21 179.559 313.961 178.734C313.105 175.416 312.007 172.164 310.678 169.004L310.171 167.825L309.574 166.646C309.209 165.872 308.768 165.128 308.353 164.379C307.51 162.875 306.467 161.493 305.252 160.27C305.239 160.259 305.223 160.252 305.206 160.252C305.189 160.252 305.173 160.259 305.161 160.27C305.154 160.277 305.149 160.284 305.145 160.292C305.142 160.301 305.14 160.309 305.14 160.318C305.14 160.327 305.142 160.336 305.145 160.345C305.149 160.353 305.154 160.36 305.161 160.367C306.288 161.637 307.242 163.051 307.998 164.571C308.368 165.33 308.763 166.089 309.082 166.869L309.589 168.037L310.035 169.232C311.226 172.411 312.183 175.673 312.897 178.992C313.293 180.647 313.551 182.327 313.87 183.992L314.276 186.522C314.417 187.362 314.6 188.191 314.716 189.052C314.985 190.732 315.294 192.401 315.588 194.081C315.882 195.761 316.155 197.446 316.51 199.141C316.514 199.156 316.523 199.168 316.535 199.177C316.546 199.186 316.561 199.191 316.576 199.192C316.585 199.193 316.594 199.191 316.603 199.188C316.611 199.185 316.619 199.181 316.626 199.175C316.632 199.168 316.638 199.161 316.641 199.153C316.645 199.144 316.647 199.135 316.647 199.126C316.647 197.412 316.606 195.699 316.525 193.985C316.444 192.229 316.241 190.529 316.064 188.819Z" fill="#263238"/>
<path d="M312.507 189.042C311.712 186.79 310.79 184.584 309.787 182.423C308.773 180.266 307.63 178.172 306.361 176.154C306.348 176.144 306.332 176.139 306.316 176.139C306.299 176.139 306.283 176.144 306.27 176.154C306.259 176.166 306.252 176.182 306.252 176.199C306.252 176.216 306.259 176.233 306.27 176.245C307.37 178.341 308.345 180.5 309.189 182.711C310.065 184.902 310.851 187.129 311.509 189.396C312.168 191.663 312.659 193.95 313.262 196.232C313.865 198.514 314.407 200.786 315.107 203.088C315.111 203.102 315.12 203.114 315.132 203.123C315.144 203.132 315.158 203.138 315.172 203.139C315.19 203.139 315.207 203.132 315.219 203.119C315.231 203.107 315.238 203.09 315.238 203.073C315.27 200.676 315.046 198.283 314.569 195.933C314.07 193.584 313.381 191.279 312.507 189.042Z" fill="#263238"/>
<path d="M312.36 196.54C311.92 195.137 311.282 193.803 310.465 192.578C309.705 191.322 308.78 190.173 307.714 189.163C307.168 188.674 306.582 188.232 305.961 187.842C305.349 187.443 304.679 187.141 303.975 186.947C303.96 186.942 303.944 186.943 303.93 186.949C303.916 186.956 303.905 186.968 303.899 186.982C303.892 186.999 303.892 187.018 303.898 187.035C303.905 187.052 303.918 187.065 303.934 187.073C305.203 187.684 306.327 188.556 307.233 189.634C308.15 190.683 308.922 191.85 309.528 193.105C310.176 194.334 310.541 195.7 311.083 196.971C311.332 197.618 311.59 198.276 311.869 198.924C312.116 199.602 312.405 200.265 312.735 200.907C312.742 200.918 312.751 200.926 312.761 200.932C312.772 200.939 312.784 200.942 312.796 200.943C312.805 200.943 312.814 200.942 312.823 200.939C312.831 200.936 312.839 200.931 312.846 200.925C312.852 200.919 312.858 200.912 312.861 200.903C312.865 200.895 312.867 200.886 312.867 200.877C312.891 200.146 312.864 199.413 312.786 198.686C312.684 197.967 312.532 197.254 312.36 196.54Z" fill="#263238"/>
<path d="M312.614 156.895C312.614 156.895 305.571 155.271 303.95 147.701C302.328 140.132 307.557 143.37 302.866 131.469C298.174 119.568 299.253 116.866 300.879 113.44C302.506 110.015 303.413 111.092 304.852 115.601C306.291 120.109 311.535 127.143 313.521 140.309C315.507 153.475 312.614 156.895 312.614 156.895Z" fill="#EE742A"/>
<path d="M326.527 144.094C326.527 144.094 321.835 142.469 321.653 133.635C321.47 124.8 325.083 126.601 325.625 115.601C326.167 104.6 326.892 96.8483 328.878 96.6662C330.864 96.484 336.098 102.075 337.907 114.341C339.715 126.606 335.556 134.717 331.948 138.325C328.341 141.933 326.527 144.094 326.527 144.094Z" fill="#EE742A"/>
<path d="M310.08 167.537C310.08 167.537 309.001 161.045 306.832 157.978C304.664 154.912 299.972 152.21 296.902 146.259C293.831 140.309 290.401 137.419 290.584 145.895C290.766 154.37 294.556 158.702 299.248 161.581C303.939 164.46 310.08 167.537 310.08 167.537Z" fill="#EE742A"/>
<path d="M308.109 178.714C308.109 178.714 303.777 170.421 297.469 164.288C291.161 158.155 286.095 155.094 287.898 158.16C289.702 161.227 291.871 161.045 294.941 166.454C298.011 171.863 297.11 175.83 301.442 178.896C305.774 181.963 308.109 178.714 308.109 178.714Z" fill="#EE742A"/>
<path d="M307.547 189.355C307.37 188.814 307.187 184.847 301.051 181.603C294.916 178.36 289.13 179.62 289.854 181.239C290.579 182.858 294.368 185.57 298.158 187.19C301.948 188.809 307.547 189.355 307.547 189.355Z" fill="#EE742A"/>
<path d="M326.167 167.896C326.167 167.896 323.461 164.47 324.905 157.27C326.349 150.069 329.597 151.861 333.209 148.076C336.822 144.291 336.097 143.749 339.71 139.782C343.322 135.815 346.57 133.65 348.014 135.274C349.458 136.898 347.295 141.943 345.126 144.827C342.958 147.711 339.553 149.159 337.906 152.766C336.26 156.374 336.999 162.143 332.84 164.845C328.68 167.547 326.167 167.896 326.167 167.896Z" fill="#EE742A"/>
<path d="M335.196 169.879C335.196 169.879 341.696 162.487 346.393 157.078C351.09 151.668 352.889 147.519 353.071 151.127C353.253 154.735 354.697 157.619 350.902 162.305C347.108 166.99 335.196 169.879 335.196 169.879Z" fill="#EE742A"/>
<path d="M331.765 181.78C331.765 181.78 331.583 178.896 341.899 172.222C352.214 165.548 356.521 164.288 355.437 166.995C354.353 169.702 349.863 172.404 344.964 177.272C340.065 182.14 331.765 181.78 331.765 181.78Z" fill="#EE742A"/>
<path d="M313.054 156.126C313.054 156.126 310.637 143.193 308.109 133.994C305.581 124.795 303.959 119.208 303.959 119.208" stroke="#263238" stroke-linecap="round" stroke-linejoin="round"/>
<path d="M326.111 144.21C326.111 144.21 330.499 130.189 331.948 121.713C333.397 113.238 331.766 106.928 331.041 103.138" stroke="#263238" stroke-linecap="round" stroke-linejoin="round"/>
<path d="M309.528 167.263C307.583 163.925 305.358 160.758 302.875 157.796C298.903 153.11 295.833 150.585 294.029 146.077" stroke="#263238" stroke-linecap="round" stroke-linejoin="round"/>
<path d="M326.167 167.896C326.167 167.896 327.611 159.238 331.041 154.74C334.471 150.241 341.337 143.198 344.027 138.684" stroke="#263238" stroke-linecap="round" stroke-linejoin="round"/>
<path d="M307.147 189.158C307.147 189.158 301.067 185.206 296.735 183.045" stroke="#263238" stroke-linecap="round" stroke-linejoin="round"/>
<path d="M307.04 197.993C306.579 205.891 311.56 219.67 313.672 225.104C313.913 225.767 314.349 226.342 314.923 226.753C315.498 227.163 316.184 227.389 316.89 227.401H324.839C325.546 227.389 326.233 227.163 326.808 226.753C327.384 226.343 327.821 225.768 328.062 225.104C330.175 219.67 335.155 205.876 334.694 197.993H307.04Z" fill="#263238" stroke="#263238" stroke-linecap="round" stroke-linejoin="round"/>
<path d="M254.499 65.8862C253.723 66.6554 252.761 67.2373 251.889 68.1987C251.018 69.1601 247.735 70.2227 247.446 70.3239C247.157 70.4251 247.638 68.6794 247.446 66.8476C247.253 65.0159 246.093 65.3043 245.708 66.1747C245.323 67.045 245.323 68.2948 245.029 69.2613C244.735 70.2277 242.136 72.8286 242.232 74.2757C242.328 75.7229 242.521 78.8297 242.521 78.8297L232.474 91.1761C232.474 91.1761 229.576 81.9163 228.228 77.3826C226.88 72.8488 224.747 70.0506 220.694 68.8969C218.105 68.18 215.45 67.7273 212.769 67.5459L197.6 67.3334C197.119 67.5257 186.783 68.2948 184.852 70.7084C182.922 73.122 181.28 82.8524 181.28 83.5355C181.28 84.2186 178.286 93.2811 178.286 93.2811C178.286 93.2811 173.842 92.1223 169.206 87.9731C164.57 83.8239 160.801 81.127 160.704 80.8335C160.608 80.54 158.967 79.0979 155.972 76.2036C152.978 73.3093 150.951 72.2517 149.309 71.5737C147.668 70.8956 145.93 71.5737 146.026 72.444C146.123 73.3143 146.508 73.2131 148.245 73.5066C149.983 73.8001 151.432 75.7229 151.432 75.7229C151.432 75.7229 149.791 77.5546 149.502 78.7133C149.213 79.8721 148.631 81.7038 149.695 82.2806C150.759 82.8575 152.978 82.9587 152.978 82.9587C152.978 82.9587 153.657 84.1174 154.427 84.1174C155.197 84.1174 158.1 83.8239 158.1 83.8239C158.1 83.8239 167.276 96.56 169.495 98.6801C171.714 100.8 178.286 103.892 179.35 104.276C180.414 104.661 181.954 105.142 183.211 104.276C184.467 103.411 189.108 91.08 189.108 91.08C189.108 91.08 191.996 98.2601 192.579 101.251C192.922 102.846 192.898 104.498 192.508 106.083C192.508 105.966 193.08 105.238 193.015 104.656C198.015 105.719 209.552 108.021 220.846 105.096V105.238C220.557 102.247 222.036 93.9743 222.036 93.9743C222.036 93.9743 225.325 100.147 226.87 102.85C228.415 105.552 231.025 107.201 232.95 106.817C234.875 106.432 240.677 94.9509 241.452 91.7681C242.227 88.5854 245.698 80.373 246.179 79.5078C246.66 78.6425 249.66 76.32 250.334 75.8393C251.008 75.3586 253.88 73.3093 254.585 72.3681C255.289 71.4269 255.644 69.1854 255.745 67.4498C255.846 65.7142 255.269 65.1121 254.499 65.8862Z" fill="white" stroke="#263238" stroke-linecap="round" stroke-linejoin="round"/>
<path d="M223.769 158.884C224.144 157.067 224.894 155.382 225.462 153.596C226.961 149.049 228.085 144.387 228.821 139.656C229.182 137.345 229.331 135.006 229.267 132.668C228.841 122.042 221.768 107.874 221.003 105.972C220.906 105.684 220.85 105.384 220.836 105.081C209.542 108.006 198.005 105.703 193.004 104.641C193.08 105.223 192.498 105.951 192.498 106.068C192.498 106.447 185.805 121.313 185.273 128.332C184.741 135.35 185.166 139.155 186.651 146.042C187.171 148.44 187.781 150.817 188.48 153.171C189.139 155.377 190.187 157.599 190.567 159.926C190.973 162.406 191.338 164.809 190.821 167.223C189.301 174.307 189.301 180.348 190.821 186.911C192.341 193.474 192.847 199.02 193.597 203.311C194.347 207.602 194.312 219.604 194.312 219.604C193.286 221.414 192.121 223.141 190.826 224.77C187.375 229.102 187.451 232.684 188.465 233.696C189.478 234.708 190.572 234.111 193.607 231.839C196.642 229.567 199.419 225.261 199.687 223.743L199.941 222.225L200.954 216.153C200.954 216.153 203.736 195.969 203.736 188.905C203.736 182.539 204.972 174.777 205.387 168.432C205.803 162.087 205.19 163.519 205.772 157.245C205.874 156.162 205.945 148.799 206.026 147.717L206.695 138.386C206.695 138.239 206.72 138.097 206.73 137.951H207.287C207.86 141.948 207.966 145.991 208.184 150.019C208.503 155.893 208.554 162.041 208.899 167.911C209.137 171.984 209.912 175.759 210.11 179.832C210.251 182.868 210.408 185.879 210.408 188.905C210.408 195.989 213.19 216.153 213.19 216.153L214.203 222.225L214.457 223.743C214.71 225.261 217.497 229.547 220.537 231.839C223.577 234.131 224.651 234.369 225.659 233.357C226.667 232.345 226.272 229.906 223.126 225.337C221.92 223.615 220.84 221.809 219.893 219.933C219.893 219.933 219.746 207.592 220.501 203.301C221.256 199.01 222.27 193.469 223.784 186.901C225.299 180.333 225.304 174.282 223.784 167.213C223.278 164.951 223.394 162.659 223.562 160.316C223.6 159.835 223.669 159.356 223.769 158.884Z" fill="#263238" stroke="#263238" stroke-linecap="round" stroke-linejoin="round"/>
<path d="M214.436 223.748C214.69 225.266 217.476 229.552 220.516 231.844C223.556 234.136 224.631 234.374 225.639 233.362C226.647 232.35 226.252 229.911 223.106 225.342C221.951 223.669 220.908 221.921 219.984 220.11C217.37 221.547 214.7 220.373 213.793 219.882L214.183 222.215L214.436 223.748Z" fill="white" stroke="#263238" stroke-linecap="round" stroke-linejoin="round"/>
<path d="M199.672 223.748L199.925 222.23L200.295 220.034C196.044 221.552 194.312 219.589 194.312 219.589C193.286 221.399 192.121 223.126 190.826 224.755C187.375 229.086 187.451 232.669 188.465 233.681C189.478 234.693 190.572 234.096 193.607 231.824C196.642 229.552 199.419 225.261 199.672 223.748Z" fill="white" stroke="#263238" stroke-linecap="round" stroke-linejoin="round"/>
<path d="M199.925 222.23L200.077 221.329C199.482 222.105 198.972 222.943 198.557 223.829C197.296 226.46 195.345 228.98 192.711 228.889C192.012 228.884 191.332 228.663 190.764 228.256C190.196 227.849 189.768 227.277 189.539 226.617C187.426 230.098 187.603 232.836 188.465 233.701C189.478 234.713 190.572 234.116 193.607 231.844C196.642 229.572 199.419 225.266 199.687 223.748L199.925 222.23Z" fill="#263238" stroke="#263238" stroke-linecap="round" stroke-linejoin="round"/>
<path d="M223.1 228.525C221.955 229.441 218.287 228.525 217.02 225.995C216.3 224.705 215.359 223.553 214.239 222.589C214.274 222.807 214.335 223.166 214.431 223.738C214.685 225.256 217.471 229.542 220.511 231.834C223.551 234.126 224.625 234.364 225.634 233.352C226.551 232.436 226.302 230.351 223.941 226.597C223.992 226.964 223.94 227.338 223.791 227.678C223.643 228.018 223.404 228.311 223.1 228.525Z" fill="#263238" stroke="#263238" stroke-linecap="round" stroke-linejoin="round"/>
<path d="M213.808 133.508L212.48 135.102" stroke="white" stroke-linecap="round" stroke-linejoin="round"/>
<path d="M219.706 126.404L214.872 132.223" stroke="white" stroke-linecap="round" stroke-linejoin="round"/>
<path d="M197.458 130.037L201.663 133.862" stroke="white" stroke-linecap="round" stroke-linejoin="round"/>
<path d="M244.548 77.1701C244.548 77.1701 245.997 73.8912 248.51 73.0209C251.023 72.1506 253.146 71.6699 253.146 71.6699C253.146 71.6699 254.98 66.1039 255.755 67.4296C256.531 68.7553 255.076 72.7325 254.403 73.3144C253.729 73.8963 246.189 79.4876 246.189 79.4876" fill="white"/>
<path d="M244.548 77.1701C244.548 77.1701 245.997 73.8912 248.51 73.0209C251.023 72.1506 253.146 71.6699 253.146 71.6699C253.146 71.6699 254.98 66.1039 255.755 67.4296C256.531 68.7553 255.076 72.7325 254.403 73.3144C253.729 73.8963 246.189 79.4876 246.189 79.4876" stroke="#263238" stroke-linecap="round" stroke-linejoin="round"/>
<path d="M159.093 79.4875C159.093 79.4875 158.323 77.0739 158.034 76.4971C157.746 75.9202 156.008 75.2422 155.425 73.8912C154.842 72.5401 154.65 71.6698 153.976 72.5401C153.629 72.9478 153.407 73.4474 153.339 73.9783C153.271 74.5092 153.358 75.0485 153.591 75.5306C153.916 76.233 154.506 76.7786 155.233 77.0486C155.233 77.0486 153.88 80.3275 156.778 81.6785" fill="white"/>
<path d="M159.093 79.4875C159.093 79.4875 158.323 77.0739 158.034 76.4971C157.746 75.9202 156.008 75.2422 155.425 73.8912C154.842 72.5401 154.65 71.6698 153.976 72.5401C153.629 72.9478 153.407 73.4474 153.339 73.9783C153.271 74.5092 153.358 75.0485 153.591 75.5306C153.916 76.233 154.506 76.7786 155.233 77.0486C155.233 77.0486 153.88 80.3275 156.778 81.6785" stroke="#263238" stroke-linecap="round" stroke-linejoin="round"/>
<path d="M151.924 76.406C151.924 76.406 154.721 77.8532 154.624 79.103C154.528 80.3528 153.272 83.2522 153.079 83.5406C152.886 83.829 149.796 83.156 149.314 82.8676C148.833 82.5792 148.681 80.5754 149.507 78.7184C149.844 78.0472 150.232 77.4027 150.667 76.7906" fill="white"/>
<path d="M151.924 76.406C151.924 76.406 154.721 77.8532 154.624 79.103C154.528 80.3528 153.272 83.2522 153.079 83.5406C152.886 83.829 149.796 83.156 149.314 82.8676C148.833 82.5792 148.681 80.5754 149.507 78.7184C149.844 78.0472 150.232 77.4027 150.667 76.7906" stroke="#263238" stroke-linecap="round" stroke-linejoin="round"/>
<path d="M149.913 77.843C151.153 78.9629 152.666 79.7377 154.3 80.0897" stroke="#263238" stroke-linecap="round" stroke-linejoin="round"/>
<path d="M149.056 80.3578C150.349 81.4662 152.009 82.0558 153.712 82.0124" stroke="#263238" stroke-linecap="round" stroke-linejoin="round"/>
<path d="M241.133 92.8003C235.478 92.0616 235.119 89.9819 234.86 88.2463L232.474 91.1761C232.474 91.1761 229.576 81.9163 228.223 77.3825C226.87 72.8488 224.747 70.0506 220.694 68.8969C218.105 68.18 215.45 67.7273 212.77 67.5459L197.6 67.3334C197.119 67.5257 186.783 68.2948 184.852 70.7084C182.922 73.122 181.28 82.8524 181.28 83.5355C181.28 84.2186 178.286 93.2811 178.286 93.2811C176.048 92.5757 173.934 91.5276 172.018 90.1742L168.847 97.9868C169.1 98.2753 169.323 98.4929 169.495 98.6801C171.719 100.805 178.286 103.892 179.35 104.276C180.414 104.661 181.954 105.142 183.211 104.276C184.467 103.411 189.108 91.08 189.108 91.08C189.108 91.08 191.996 98.2601 192.579 101.251C192.922 102.846 192.898 104.498 192.508 106.083C192.508 106.139 192.402 106.488 192.229 107.049C196.496 108.932 201.138 109.81 205.798 109.615C211.085 109.327 216.328 108.496 221.444 107.135C221.246 106.629 221.094 106.219 221.003 105.987C220.238 104.079 222.042 93.9743 222.042 93.9743C222.042 93.9743 225.33 100.147 226.875 102.85C228.421 105.552 231.03 107.201 232.955 106.817C234.718 106.442 239.653 96.9141 241.133 92.8003Z" fill="#EE742A" stroke="#263238" stroke-linecap="round" stroke-linejoin="round"/>
<path d="M229.758 94.288L228.319 95.9426" stroke="#263238" stroke-linecap="round" stroke-linejoin="round"/>
<path d="M232.474 91.1559L230.599 93.3165" stroke="#263238" stroke-linecap="round" stroke-linejoin="round"/>
<path d="M181.984 94.9154L182.881 95.3101" stroke="#263238" stroke-linecap="round" stroke-linejoin="round"/>
<path d="M178.291 93.2811L180.748 94.1514" stroke="#263238" stroke-linecap="round" stroke-linejoin="round"/>
<path d="M195.178 34.3776C194.381 35.6549 193.719 37.0115 193.202 38.4256C192.736 40.0549 193.086 49.7094 189.706 52.2647C186.327 54.82 187.492 58.6606 191.687 61.1045C195.882 63.5485 202.981 66.8021 210.9 65.2942C218.819 63.7863 223.014 60.0571 223.481 56.9199C223.947 53.7827 221.961 53.1958 221.033 50.1699C220.106 47.144 221.15 44.0068 219.285 38.6584C217.421 33.31 211.25 29.4694 206.011 29.7022C200.772 29.9349 196.227 32.0551 195.178 34.3776Z" fill="#263238" stroke="#263238" stroke-linecap="round" stroke-linejoin="round"/>
<path d="M201.455 64.6263C201.455 64.6263 198.299 65.7951 197.757 66.5137C197.171 67.5247 196.663 68.5785 196.237 69.666C196.237 69.666 195.877 81.6431 197.681 80.8335C199.485 80.0239 204.693 75.6115 205.24 75.6976C205.787 75.7836 212.455 80.3831 213.175 80.5602C213.894 80.7373 214.077 81.1016 214.527 79.6595C214.978 78.2174 215.338 72.0999 214.978 69.4889C214.619 66.878 211.822 65.2537 210.287 64.8945C208.751 64.5352 201.455 64.6263 201.455 64.6263Z" fill="white" stroke="#263238" stroke-linecap="round" stroke-linejoin="round"/>
<path d="M200.914 61.565C200.914 61.565 200.554 65.4359 199.9 67.4143C199.247 69.3928 205.038 80.292 206.213 79.1232C207.389 77.9543 211.62 69.2157 211.62 67.8647C211.62 66.5137 211.083 61.3828 211.083 61.3828L200.914 61.565Z" fill="white" stroke="#263238" stroke-linecap="round" stroke-linejoin="round"/>
<path d="M209.111 63.4575C209.111 63.4575 207.895 65.8914 204.43 66.9995C200.964 68.1076 199.92 67.4043 199.92 67.4043L200.934 61.5549L209.111 63.4575Z" fill="#263238" stroke="#263238" stroke-linecap="round" stroke-linejoin="round"/>
<path d="M201.268 40.0195C201.268 40.0195 196.257 46.9467 196.257 47.2958C196.257 47.645 196.227 49.6184 196.227 49.6184C196.227 49.6184 193.187 48.9201 194.362 52.9883C195.537 57.0566 197.975 56.4797 197.975 56.4797C197.975 56.4797 199.723 61.479 202.053 63.3411C204.384 65.2032 207.763 65.9014 210.773 62.744C212.534 60.9968 213.746 58.7738 214.259 56.3482C214.259 56.3482 217.375 55.5183 217.532 52.5532C217.598 51.2679 217.486 50.4027 215.774 49.7196L216.007 46.1118C216.007 46.1118 202.084 44.9024 201.268 40.0195Z" fill="white" stroke="#263238" stroke-linecap="round" stroke-linejoin="round"/>
<path d="M203.371 51.5513C203.371 52.1838 203.031 52.6999 202.611 52.6999C202.19 52.6999 201.856 52.1939 201.856 51.5513C201.856 50.9087 202.195 50.4077 202.611 50.4077C203.026 50.4077 203.371 50.9188 203.371 51.5513Z" fill="#263238"/>
<path d="M211.432 51.5513C211.432 52.1838 211.093 52.6999 210.672 52.6999C210.252 52.6999 209.912 52.1939 209.912 51.5513C209.912 50.9087 210.257 50.4077 210.672 50.4077C211.088 50.4077 211.432 50.9188 211.432 51.5513Z" fill="#263238"/>
<path d="M204.252 55.9686C204.501 56.2558 204.814 56.4793 205.167 56.6202C205.52 56.7611 205.901 56.8153 206.279 56.7782C206.665 56.7289 207.036 56.5943 207.364 56.3843C207.691 56.1742 207.968 55.894 208.174 55.5638" stroke="#263238" stroke-linecap="round" stroke-linejoin="round"/>
<path d="M199.166 49.1883C199.166 49.1883 200.382 47.6399 203.087 48.5153" stroke="#263238" stroke-linecap="round" stroke-linejoin="round"/>
<path d="M208.747 47.6702C208.747 47.6702 211.569 47.0782 212.496 49.8815" stroke="#263238" stroke-linecap="round" stroke-linejoin="round"/>
<path d="M203.842 58.109C204.384 58.6276 205.086 58.9484 205.833 59.0198C207.16 59.1868 208.741 58.0078 208.741 58.0078C208.741 58.0078 208.235 60.0824 206.75 60.8313C205.266 61.5802 203.842 59.708 203.842 58.109Z" fill="#263238"/>
<path d="M222.042 93.9541L223.009 82.478" stroke="#263238" stroke-linecap="round" stroke-linejoin="round"/>
<path d="M189.108 91.0597L187.466 81.9922" stroke="#263238" stroke-linecap="round" stroke-linejoin="round"/>
<path d="M208.443 112.61C208.444 112.337 208.363 112.069 208.212 111.841C208.06 111.613 207.844 111.435 207.591 111.33C207.338 111.225 207.06 111.197 206.791 111.25C206.522 111.303 206.275 111.435 206.081 111.628C205.888 111.822 205.756 112.069 205.703 112.337C205.649 112.605 205.677 112.884 205.783 113.136C205.888 113.389 206.066 113.605 206.294 113.756C206.522 113.907 206.791 113.988 207.065 113.987C207.43 113.987 207.781 113.842 208.039 113.584C208.297 113.325 208.443 112.975 208.443 112.61Z" fill="white" stroke="#263238" stroke-linecap="round" stroke-linejoin="round"/>
<path d="M303.447 222.21H250.075V237.871H303.447V222.21Z" fill="#263238" stroke="#263238" stroke-linecap="round" stroke-linejoin="round"/>
<path d="M306.183 222.21H250.075V225.797H306.183V222.21Z" fill="#263238" stroke="#263238" stroke-linecap="round" stroke-linejoin="round"/>
<path d="M249.913 222.21H306.179L287.807 201.57H240.728L249.913 222.21Z" fill="white" stroke="#263238" stroke-linecap="round" stroke-linejoin="round"/>
<path d="M240.728 201.57V204.788L250.076 225.797L249.913 222.21L240.728 201.57Z" fill="white" stroke="#263238" stroke-linecap="round" stroke-linejoin="round"/>
<path d="M76.9371 225.797H133.045V222.21H76.9371V225.797Z" fill="#263238" stroke="#263238" stroke-linecap="round" stroke-linejoin="round"/>
<path d="M79.0856 238.017H133.041V222.215H79.0856V238.017Z" fill="#263238" stroke="#263238" stroke-linecap="round" stroke-linejoin="round"/>
<path d="M133.197 222.21H76.9321L95.3039 201.57H142.383L133.197 222.21Z" fill="white" stroke="#263238" stroke-linecap="round" stroke-linejoin="round"/>
<path d="M142.383 201.57V204.788L133.041 225.797L133.198 222.21L142.383 201.57Z" fill="white" stroke="#263238" stroke-linecap="round" stroke-linejoin="round"/>
<path d="M291.136 234.511H93.0645V237.931H291.136V234.511Z" fill="#263238" stroke="#263238" stroke-linecap="round" stroke-linejoin="round"/>
<path d="M141.451 169.535L93.0645 234.511H291.08L242.693 169.535H141.451Z" fill="white" stroke="#263238" stroke-linecap="round" stroke-linejoin="round"/>
<path d="M277.993 131.707C277.993 131.707 282.7 127.76 285.968 129.278C289.236 130.796 290.675 132.238 293.335 137.855C295.995 143.471 295.539 149.31 292.119 151.436C288.699 153.561 285.664 154.846 285.588 156.288C285.512 157.73 286.652 157.503 287.108 157.351C287.564 157.199 288.552 158.717 287.488 159.704C286.424 160.69 283.536 162.208 279.584 161.829C275.632 161.449 274.573 158.489 274.801 155.453C275.029 152.417 276.169 151.36 276.929 150.449C277.689 149.538 278.9 145.743 277.435 140.43C275.971 135.117 275.155 133.984 275.611 133.225C276.067 132.466 277.993 131.707 277.993 131.707Z" fill="#263238" stroke="#263238" stroke-linecap="round" stroke-linejoin="round"/>
<path d="M261.354 129.202C261.354 129.202 257.3 131.479 256.186 134.591C255.071 137.703 254.438 140.202 252.163 141.341C251.236 141.806 250.035 142.479 250.111 143.542C250.187 144.605 252.315 145.895 252.315 145.895C252.315 145.895 253.455 152.19 253.683 153.556C253.911 154.922 255.203 155.074 256.186 154.922C257.399 154.828 258.617 154.803 259.834 154.846L261.278 161.93L269.937 156.997L269.785 153.581C271.516 152.593 272.918 151.116 273.813 149.336C275.105 146.527 275.409 142.201 272.217 137.5C269.025 132.8 266.137 130.416 265.154 129.986C263.977 129.398 262.667 129.128 261.354 129.202Z" fill="white" stroke="#263238" stroke-linecap="round" stroke-linejoin="round"/>
<path d="M259.834 154.846L263.315 154.542L260.356 157.568L259.834 154.846Z" fill="#263238" stroke="#263238" stroke-linecap="round" stroke-linejoin="round"/>
<path d="M261.81 125.109C261.81 125.109 260.442 129.278 260.442 132.314C260.442 135.35 262.494 139.145 263.178 138.917C263.862 138.69 264.014 137.172 264.014 137.172C264.014 137.172 264.622 140.658 264.85 142.024C265.078 143.39 265.23 144.149 266.593 144.301C267.956 144.453 267.277 143.618 269.405 143.618C271.533 143.618 272.521 145.591 272.065 147.413C271.609 149.235 270.317 150.449 269.253 150.753C268.329 150.946 267.384 151.022 266.441 150.98C266.441 150.98 269.025 154.163 270.545 154.087C272.065 154.011 276.777 152.266 279.28 150.221C281.783 148.177 282.244 139.145 280.496 134.819C278.748 130.492 277.005 130.037 273.205 127.836C269.405 125.635 263.467 122.376 261.81 125.109Z" fill="#263238" stroke="#263238" stroke-linecap="round" stroke-linejoin="round"/>
<path d="M256.738 140.916C256.546 141.579 256.105 142.039 255.725 141.928C255.345 141.817 255.243 141.204 255.436 140.536C255.629 139.869 256.069 139.413 256.424 139.524C256.779 139.636 256.931 140.248 256.738 140.916Z" fill="#263238"/>
<path d="M256.338 137.551C256.338 137.551 257.782 137.045 258.01 139.221" stroke="#263238" stroke-linecap="round" stroke-linejoin="round"/>
<path d="M253.607 147.109C253.607 147.109 256.034 147.717 257.25 146.275" stroke="#263238" stroke-linecap="round" stroke-linejoin="round"/>
<path d="M259.378 162.057L260.746 166.378L272.217 158.641L270.241 155.453L259.378 162.057Z" fill="white" stroke="#263238" stroke-linecap="round" stroke-linejoin="round"/>
<path d="M260.214 163.347C260.214 163.347 257.787 184.877 257.25 187.928C257.062 188.996 257.103 188.94 257.103 188.94L278.428 217.251C278.428 217.251 286.723 216.214 284.068 196.369C283.439 191.678 280.648 180.283 280.344 178.765C280.04 177.247 275.784 164.88 274.117 162.001C272.45 159.122 271.001 158.054 271.001 158.054L260.214 163.347Z" fill="#EE742A" stroke="#263238" stroke-linecap="round" stroke-linejoin="round"/>
<path d="M266.897 164.784C266.897 164.784 265.99 166.808 267.657 172.45C269.324 178.092 272.901 184.513 274.193 183.982C275.485 183.45 285.588 179.048 285.816 178.061C286.044 177.075 285.436 176.169 284.448 174.651C283.46 173.133 275.789 163.043 274.193 161.146C272.597 159.248 270.393 160.311 269.709 161.07" fill="#EE742A"/>
<path d="M266.897 164.784C266.897 164.784 265.99 166.808 267.657 172.45C269.324 178.092 272.901 184.513 274.193 183.982C275.485 183.45 285.588 179.048 285.816 178.061C286.044 177.075 285.436 176.169 284.448 174.651C283.46 173.133 275.789 163.043 274.193 161.146C272.597 159.248 270.393 160.311 269.709 161.07" stroke="#263238" stroke-linecap="round" stroke-linejoin="round"/>
<path d="M275.029 183.83L276.169 185.5L285.892 180.263L284.98 178.82L275.029 183.83Z" fill="white" stroke="#263238" stroke-linecap="round" stroke-linejoin="round"/>
<path d="M226.333 186.345L226.51 187.691L236.578 201.514L236.912 200.341C236.17 198.027 235.223 195.785 234.08 193.641C232.317 190.453 229.464 188.531 228.795 187.858C228.038 187.258 227.211 186.75 226.333 186.345Z" fill="white" stroke="#263238" stroke-linecap="round" stroke-linejoin="round"/>
<path d="M231.876 192.381L248.165 191.658C248.165 191.658 250.952 192.3 251.905 193.818C252.857 195.336 253.739 197.299 254.853 198.145C255.432 198.569 255.984 199.028 256.505 199.521L236.912 200.341C236.912 200.341 235.017 196.864 234.247 195.048C233.753 193.935 232.924 193.003 231.876 192.381Z" fill="white" stroke="#263238" stroke-linecap="round" stroke-linejoin="round"/>
<path d="M231.876 192.887C231.876 192.887 232.084 190.641 230.538 189.952C228.268 188.94 226.333 186.345 226.333 186.345L243.2 185.196C243.905 186.308 244.72 187.348 245.632 188.298C246.671 189.335 248.317 190.099 248.165 191.678L231.876 192.887Z" fill="white" stroke="#263238" stroke-linecap="round" stroke-linejoin="round"/>
<path d="M276.168 185.5C276.168 185.5 267.96 191.339 265.528 192.629C263.096 193.92 260.588 193.92 259.6 193.995C258.612 194.071 255.42 193.768 253.222 193.692C251.023 193.616 250.334 194.451 249.726 195.286C249.118 196.121 247.978 198.853 247.75 199.308C247.522 199.764 248.282 199.84 248.586 199.688L248.89 199.536C248.89 199.536 249.042 200.067 249.802 199.916C250.274 199.819 250.733 199.666 251.17 199.46C251.17 199.46 251.018 200.295 252.006 200.067C253.183 199.654 254.325 199.147 255.42 198.549C255.42 198.549 256.256 198.929 258.916 198.549C260.504 198.326 262.015 197.728 263.324 196.804C263.324 196.804 273.579 194.223 278.063 191.946C282.547 189.669 284.898 188.156 286.722 186.562C288.546 184.968 288.926 184.817 288.014 183.223C287.396 182.174 286.684 181.183 285.886 180.263L276.168 185.5Z" fill="white" stroke="#263238" stroke-linecap="round" stroke-linejoin="round"/>
<path d="M251.175 199.46C252.278 198.613 253.445 197.852 254.666 197.183" stroke="#263238" stroke-linecap="round" stroke-linejoin="round"/>
<path d="M248.895 199.536C248.895 199.536 252.391 196.121 252.695 195.893" stroke="#263238" stroke-linecap="round" stroke-linejoin="round"/>
<path d="M248.971 196.804C248.971 196.804 250.719 195.362 251.327 194.982" stroke="#263238" stroke-linecap="round" stroke-linejoin="round"/>
<path d="M257.984 182.109C257.756 182.185 249.006 182.793 248.398 182.793C247.599 182.721 246.81 182.569 246.042 182.337C245.536 182.185 239.456 180.288 238.675 180.288C237.895 180.288 236.319 185.596 236.623 186.36C236.927 187.124 239.359 187.195 241.563 187.422C243.767 187.65 244.983 187.65 245.971 187.422C246.617 187.267 247.25 187.064 247.866 186.815L257.138 188.561L257.984 182.109Z" fill="white" stroke="#263238" stroke-linecap="round" stroke-linejoin="round"/>
<path d="M240.008 187.792L239.232 189.062L239.136 187.519L242.186 177.834C242.224 177.719 242.305 177.624 242.412 177.569C242.519 177.514 242.644 177.504 242.759 177.54C242.817 177.558 242.87 177.586 242.917 177.624C242.963 177.663 243.001 177.71 243.029 177.763C243.057 177.816 243.074 177.875 243.079 177.935C243.084 177.995 243.077 178.055 243.058 178.112L240.008 187.792Z" stroke="#263238" stroke-linecap="round" stroke-linejoin="round"/>
<path d="M242.779 177.54C242.664 177.504 242.54 177.514 242.432 177.569C242.325 177.624 242.244 177.719 242.207 177.834L241.781 179.175L242.653 179.448L243.078 178.112C243.097 178.055 243.104 177.995 243.099 177.935C243.094 177.875 243.077 177.816 243.05 177.763C243.022 177.71 242.983 177.663 242.937 177.624C242.891 177.586 242.837 177.558 242.779 177.54Z" stroke="#263238" stroke-linecap="round" stroke-linejoin="round"/>
<path d="M241.107 180.895C241.107 180.895 238.219 179.225 237.763 179.529C237.307 179.832 236.091 181.275 236.167 182.109C236.243 182.944 238.371 186.886 238.447 187.169C238.523 187.453 239.891 187.018 240.043 186.335C240.195 185.651 239.359 181.937 239.359 181.937" fill="white"/>
<path d="M241.107 180.895C241.107 180.895 238.219 179.225 237.763 179.529C237.307 179.832 236.091 181.275 236.167 182.109C236.243 182.944 238.371 186.886 238.447 187.169C238.523 187.453 239.891 187.018 240.043 186.335C240.195 185.651 239.359 181.937 239.359 181.937" stroke="#263238" stroke-linecap="round" stroke-linejoin="round"/>
<path d="M236.167 182.109C236.167 182.109 234.571 183.627 234.723 184.31C234.875 184.994 236.699 187.417 237.839 187.417C238.979 187.417 238.143 187.797 238.447 187.19C238.751 186.582 236.167 182.109 236.167 182.109Z" fill="white" stroke="#263238" stroke-linecap="round" stroke-linejoin="round"/>
<path d="M234.951 184.913C234.951 184.913 234.267 186.355 234.647 186.81C235.027 187.265 237.307 186.962 237.839 187.417C238.371 187.873 238.447 187.19 238.447 187.19L234.951 184.913Z" fill="white" stroke="#263238" stroke-linecap="round" stroke-linejoin="round"/>
<path d="M235.332 187.341C235.727 187.763 236.224 188.077 236.776 188.252C237.424 188.393 238.089 188.444 238.752 188.404L237.84 187.417L235.332 187.341Z" fill="white" stroke="#263238" stroke-linecap="round" stroke-linejoin="round"/>
<path d="M243.083 182.717C242.539 183.184 242.031 183.691 241.563 184.235C241.487 184.462 238.599 187.949 238.751 188.404C238.903 188.86 240.271 189.087 240.778 188.935C241.285 188.784 243.311 186.81 243.311 186.81C243.889 187.045 244.518 187.123 245.135 187.038C246.118 186.886 247.486 185.216 247.486 185.216" fill="white"/>
<path d="M243.083 182.717C242.539 183.184 242.031 183.691 241.563 184.235C241.487 184.462 238.599 187.949 238.751 188.404C238.903 188.86 240.271 189.087 240.778 188.935C241.285 188.784 243.311 186.81 243.311 186.81C243.889 187.045 244.518 187.123 245.135 187.038C246.118 186.886 247.486 185.216 247.486 185.216" stroke="#263238" stroke-linecap="round" stroke-linejoin="round"/>
<path d="M236.578 201.515L256.378 200.513L256.505 199.521L236.912 200.346L236.578 201.515Z" fill="white" stroke="#263238" stroke-linecap="round" stroke-linejoin="round"/>
<path d="M124.822 191.334L123.242 185.702L127.685 183.324C126.277 179.949 123.49 174.175 121.813 170.583C119.573 165.781 117.977 164.657 115.16 163.225C112.343 161.793 108.847 161.586 106.04 161.788C103.233 161.991 97.8627 164.546 97.0977 165.467C97.0977 165.467 92.2438 169.859 91.6155 172.111C90.9873 174.363 96.5353 202.977 96.3427 204.814C96.1502 206.65 97.807 214.306 99.7982 215.855C100.659 216.558 101.658 217.075 102.73 217.372C103.802 217.669 104.924 217.74 106.025 217.58L125.02 191.435L124.822 191.334Z" fill="#EE742A" stroke="#263238" stroke-linecap="round" stroke-linejoin="round"/>
<path d="M101.794 160.25C101.794 160.25 99.7117 160.66 99.3773 161.171C99.0429 161.682 97.1074 165.462 97.1074 165.462C97.1074 165.462 100.173 172.414 100.335 173.229C100.497 174.044 100.973 174.97 102.149 174.15C103.324 173.33 108.229 169.758 108.974 169.556C109.718 169.353 116.574 172.622 117.192 172.318C117.81 172.015 117.84 171.701 117.491 170.375C117.141 169.05 113.437 162.279 111.274 160.458C109.11 158.636 101.794 160.25 101.794 160.25Z" fill="white" stroke="#263238" stroke-linecap="round" stroke-linejoin="round"/>
<path d="M100.35 158.206C100.35 158.206 101.363 163.215 101.52 163.828C101.678 164.44 108.29 175.076 109.551 172.546C110.813 170.016 110.711 163.549 110.564 162.32C110.418 161.09 110.433 158.641 110.433 158.641C110.433 158.641 102.762 159.43 100.35 158.206Z" fill="white" stroke="#263238" stroke-linecap="round" stroke-linejoin="round"/>
<path d="M100.35 158.206C100.35 158.206 101.363 163.215 101.52 163.828C101.674 164.168 101.853 164.497 102.058 164.809C104.925 163.64 107.732 162.328 110.468 160.878C110.428 159.764 110.433 158.616 110.433 158.616C110.433 158.616 102.762 159.43 100.35 158.206Z" fill="#263238" stroke="#263238" stroke-linecap="round" stroke-linejoin="round"/>
<path d="M117.07 138.892C117.07 138.892 116.173 144.615 116.224 145.637C116.275 146.659 117.881 151.871 116.518 154.426C115.155 156.981 112.313 160.255 108.984 160.868C107.34 161.177 105.649 161.145 104.018 160.775C102.386 160.405 100.848 159.705 99.499 158.717C97.8206 157.582 96.5606 155.929 95.9118 154.011C94.7365 153.905 93.6332 153.399 92.7857 152.579C91.5089 151.254 90.1459 149.614 91.0275 148.491C91.5745 147.804 92.2665 147.246 93.0542 146.856C93.0542 146.856 91.9598 143.992 91.5342 142.257C91.1086 140.521 89.1731 137.759 91.8939 134.895C94.6147 132.031 100.462 130.503 104.348 131.115C108.234 131.727 112.034 132.127 114.025 133.574C116.016 135.021 117.07 138.892 117.07 138.892Z" fill="white" stroke="#263238" stroke-linecap="round" stroke-linejoin="round"/>
<path d="M93.9765 142.97C93.9765 142.97 95.8866 148.187 95.157 148.39C94.7862 148.464 94.402 148.437 94.0453 148.312C93.6885 148.186 93.3724 147.966 93.1304 147.676C92.7402 147.17 91.7674 146.037 91.7674 146.037L90.0397 143.38C90.0397 143.38 85.2821 139.393 85.8901 135.406C86.4981 131.418 88.013 129.986 89.2848 129.273C90.3959 128.724 91.5562 128.28 92.7504 127.947C92.7504 127.947 89.1733 127.33 90.6629 126.429C92.1525 125.528 92.9328 126.429 92.9328 126.429C92.9328 126.429 95.5421 123.666 95.7194 124.279C95.8098 125.12 95.8098 125.968 95.7194 126.809C98.6009 124.696 102.096 123.585 105.67 123.646C111.436 123.849 117.111 128.043 119.046 130.599C120.982 133.154 122.461 134.586 120.298 136.731C118.134 138.877 116.787 141.027 112.814 140.005C110.502 139.434 108.363 138.311 106.582 136.731C106.582 136.731 107.287 139.185 104.834 138.669C102.382 138.153 99.9146 135.912 99.9146 135.912C99.9146 135.912 101.141 138.259 98.3592 140.304C97.0093 141.363 95.5381 142.258 93.9765 142.97Z" fill="#263238" stroke="#263238" stroke-linecap="round" stroke-linejoin="round"/>
<path d="M110.038 149.827C110.017 150.052 109.912 150.262 109.743 150.413C109.573 150.565 109.353 150.646 109.126 150.641C109.016 150.647 108.906 150.63 108.803 150.591C108.701 150.553 108.607 150.493 108.528 150.417C108.449 150.34 108.387 150.248 108.345 150.147C108.303 150.045 108.283 149.936 108.285 149.827C108.306 149.6 108.413 149.39 108.583 149.238C108.753 149.086 108.974 149.003 109.202 149.007C109.312 149.002 109.421 149.02 109.524 149.059C109.627 149.098 109.72 149.158 109.798 149.235C109.877 149.312 109.939 149.404 109.98 149.506C110.021 149.608 110.041 149.717 110.038 149.827Z" stroke="#263238" stroke-linecap="round" stroke-linejoin="round"/>
<path d="M105.939 153.606C105.939 153.606 108.913 155.959 112.095 152.088" stroke="#263238" stroke-linecap="round" stroke-linejoin="round"/>
<path d="M104.1 146.497C104.237 147.322 104.009 148.066 103.593 148.157C103.178 148.248 102.722 147.651 102.58 146.816C102.438 145.981 102.671 145.242 103.086 145.156C103.502 145.07 103.963 145.667 104.1 146.497Z" fill="#263238"/>
<path d="M112.743 145.126C112.88 145.951 112.652 146.694 112.237 146.78C111.821 146.867 111.365 146.274 111.223 145.44C111.081 144.605 111.315 143.871 111.73 143.785C112.145 143.699 112.607 144.296 112.743 145.126Z" fill="#263238"/>
<path d="M99.9043 144.099C99.9043 144.099 101.875 141.746 104.647 142.075" stroke="#263238" stroke-linecap="round" stroke-linejoin="round"/>
<path d="M110.165 140.931C110.165 140.931 113.422 139.707 114.76 141.852" stroke="#263238" stroke-linecap="round" stroke-linejoin="round"/>
<path d="M94.6099 168.017C94.6099 168.017 91.4533 169.343 89.5939 171.489C87.7344 173.634 89.1429 195.513 89.1429 195.513L100.933 192.654L96.7733 176.913" fill="#EE742A"/>
<path d="M94.6099 168.017C94.6099 168.017 91.4533 169.343 89.5939 171.489C87.7344 173.634 89.1429 195.513 89.1429 195.513L100.933 192.654L96.7733 176.913" stroke="#263238" stroke-linecap="round" stroke-linejoin="round"/>
<path d="M123.242 185.702L138.32 174.368C138.32 174.368 141.421 169.89 142.12 169.308C142.819 168.726 146.604 169.976 147.693 171.023C148.783 172.07 149.568 173.973 148.241 175.496C146.851 176.962 145.106 178.044 143.174 178.638C141.613 179.114 140.788 178.355 140.788 178.355C140.788 178.355 132.878 188.733 131.668 189.588C130.457 190.443 128.43 192.923 124.99 191.415C123.627 190.828 123.242 185.702 123.242 185.702Z" fill="white" stroke="#263238" stroke-linecap="round" stroke-linejoin="round"/>
<path d="M141.867 170.461C141.867 170.461 143.767 166.919 144.567 166.272C145.368 165.624 148.413 164.248 148.56 165.224C148.707 166.201 147.901 166.843 147.405 167.248C146.997 167.535 146.566 167.789 146.118 168.007L144.4 171.701" fill="white"/>
<path d="M141.867 170.461C141.867 170.461 143.767 166.919 144.567 166.272C145.368 165.624 148.413 164.248 148.56 165.224C148.707 166.201 147.901 166.843 147.405 167.248C146.997 167.535 146.566 167.789 146.118 168.007L144.4 171.701" stroke="#263238" stroke-linecap="round" stroke-linejoin="round"/>
<path d="M145.885 168.751C145.885 168.751 147.714 168.655 147.871 169.323C148.028 169.991 147.43 172.465 146.239 173.229C145.049 173.993 144.415 173.229 144.436 172.845C144.456 172.46 145.885 168.751 145.885 168.751Z" fill="white" stroke="#263238" stroke-linecap="round" stroke-linejoin="round"/>
<path d="M147.871 169.323C147.871 169.323 149.852 170.087 149.72 170.841C149.588 171.595 149.087 173.983 148.018 174.175C146.949 174.368 146.239 173.224 146.239 173.224C146.239 173.224 147.876 171.225 147.871 169.323Z" fill="white" stroke="#263238" stroke-linecap="round" stroke-linejoin="round"/>
<path d="M149.72 170.846C149.72 170.846 151.478 172.182 150.835 173.609C150.191 175.036 148.879 176.275 148.241 175.511C148.058 175.347 147.937 175.126 147.896 174.885C147.856 174.643 147.899 174.395 148.018 174.18C148.018 174.18 149.644 172.369 149.72 170.846Z" fill="white" stroke="#263238" stroke-linecap="round" stroke-linejoin="round"/>
<path d="M138.918 173.604C138.918 173.604 141.37 170.654 141.862 170.461C142.353 170.269 145.545 171.701 146.31 171.797C147.075 171.893 148.134 171.797 147.704 172.754C147.273 173.71 146.108 173.988 145.049 173.988C144.751 174 144.456 173.936 144.19 173.803C143.924 173.669 143.696 173.47 143.529 173.224C143.529 173.224 143.473 176.371 140.549 177.227" fill="white"/>
<path d="M138.918 173.604C138.918 173.604 141.37 170.654 141.862 170.461C142.353 170.269 145.545 171.701 146.31 171.797C147.075 171.893 148.134 171.797 147.704 172.754C147.273 173.71 146.108 173.988 145.049 173.988C144.751 174 144.456 173.936 144.19 173.803C143.924 173.669 143.696 173.47 143.529 173.224C143.529 173.224 143.473 176.371 140.549 177.227" stroke="#263238" stroke-linecap="round" stroke-linejoin="round"/>
<path d="M100.933 192.654C100.933 192.654 113.949 194.931 115.58 195.028C117.212 195.124 119.127 195.124 119.127 195.124C119.127 195.124 124.138 192.842 125.319 192.27C126.499 191.698 126.408 191.602 128.389 192.366C129.998 193 131.566 193.732 133.086 194.557C133.364 194.749 134.388 195.417 133.977 195.989C133.567 196.561 133.263 196.844 132.001 197.036C130.74 197.229 129.301 197.32 129.301 197.32C129.301 197.32 133.106 198.084 132.224 198.367C131.343 198.651 127.244 198.079 126.57 198.079C125.198 198.164 123.85 198.486 122.588 199.03C121.113 199.698 118.656 198.843 117.698 198.747C116.741 198.651 106.486 200.077 102.265 199.976C98.0447 199.875 94.3055 199.597 91.8786 198.165C89.4516 196.733 90.1002 195.215 90.1002 195.215L100.933 192.654Z" fill="white" stroke="#263238" stroke-linecap="round" stroke-linejoin="round"/>
<path d="M126.813 195.225L133.983 195.989" stroke="#263238" stroke-linecap="round" stroke-linejoin="round"/>
<path d="M127.386 193.317L133.091 194.557" stroke="#263238" stroke-linecap="round" stroke-linejoin="round"/>
<path d="M123.242 185.697L119.649 174.646" stroke="#263238" stroke-linecap="round" stroke-linejoin="round"/>
<path d="M219.139 200.442H189.737L191.561 190.013L215.232 189.942L219.139 200.442Z" fill="#263238" stroke="#263238" stroke-linecap="round" stroke-linejoin="round"/>
<path d="M218.348 196.055H190.477V199.46H218.348V196.055Z" fill="white" stroke="#263238" stroke-linecap="round" stroke-linejoin="round"/>
<path d="M219.139 197.497H189.752L191.429 188.293C191.478 187.949 191.652 187.634 191.917 187.409C192.182 187.183 192.52 187.062 192.868 187.068L214.118 187.002C214.435 186.995 214.746 187.094 215.001 187.283C215.256 187.471 215.441 187.739 215.526 188.045L219.139 197.497Z" fill="#263238" stroke="#263238" stroke-linecap="round" stroke-linejoin="round"/>
<path d="M207.962 195.351L179.026 200.533L178.975 189.947L202.267 185.702L207.962 195.351Z" fill="#EE742A" stroke="#263238" stroke-linecap="round" stroke-linejoin="round"/>
<path d="M206.41 191.175L178.975 196.085L179.577 199.437L207.011 194.527L206.41 191.175Z" fill="white" stroke="#263238" stroke-linecap="round" stroke-linejoin="round"/>
<path d="M207.44 192.457L178.504 197.634L178.529 188.278C178.516 187.931 178.63 187.591 178.851 187.323C179.071 187.054 179.382 186.876 179.725 186.82L200.64 183.01C200.951 182.949 201.273 182.991 201.557 183.131C201.841 183.271 202.071 183.501 202.211 183.784L207.44 192.457Z" fill="#EE742A" stroke="#263238" stroke-linecap="round" stroke-linejoin="round"/>
<path d="M156.985 156.921H154.655L153.489 194H158.156L156.985 156.921Z" fill="white" stroke="#263238" stroke-linecap="round" stroke-linejoin="round"/>
<path d="M152.866 158.024L157.751 158.889V154.694L152.866 155.56C152.581 155.615 152.323 155.768 152.138 155.992C151.953 156.217 151.852 156.499 151.853 156.789C151.852 157.08 151.953 157.363 152.138 157.588C152.323 157.813 152.58 157.967 152.866 158.024Z" fill="white" stroke="#263238" stroke-linecap="round" stroke-linejoin="round"/>
<path d="M157.107 154.694L152.041 132.117C152.041 132.117 153.317 130.69 154.113 133.073C154.908 135.456 160.157 149.447 159.843 150.555C159.529 151.663 157.771 153.257 157.771 153.257L158.247 155.787H156.656L157.107 154.694Z" fill="white" stroke="#263238" stroke-linecap="round" stroke-linejoin="round"/>
<path d="M156.96 159.39L144.608 178.957C144.608 178.957 142.697 179.073 143.812 176.822C144.927 174.57 151.088 160.948 152.096 160.402C153.104 159.855 155.471 159.947 155.471 159.947L156.93 157.806L158.08 158.884L156.96 159.39Z" fill="white" stroke="#263238" stroke-linecap="round" stroke-linejoin="round"/>
<path d="M158.399 157.148L181.199 161.166C181.199 161.166 182.03 162.892 179.522 162.709C177.014 162.527 162.062 161.991 161.155 161.267C160.248 160.544 159.453 158.322 159.453 158.322L156.919 157.786L157.533 156.319L158.399 157.148Z" fill="white" stroke="#263238" stroke-linecap="round" stroke-linejoin="round"/>
<path d="M159.98 156.921C159.981 157.363 159.851 157.795 159.606 158.162C159.36 158.53 159.012 158.817 158.603 158.986C158.195 159.156 157.745 159.201 157.311 159.115C156.877 159.029 156.478 158.816 156.166 158.504C155.853 158.191 155.64 157.793 155.554 157.36C155.468 156.927 155.513 156.477 155.682 156.07C155.852 155.662 156.139 155.313 156.507 155.068C156.876 154.823 157.308 154.693 157.751 154.694C158.342 154.696 158.908 154.931 159.326 155.348C159.743 155.765 159.979 156.331 159.98 156.921Z" fill="white" stroke="#263238" stroke-linecap="round" stroke-linejoin="round"/>
<path d="M164.671 193.479H147.055V196.915H164.671V193.479Z" fill="white" stroke="#263238" stroke-linecap="round" stroke-linejoin="round"/>
</svg>
