<svg width="27" height="30" viewBox="0 0 27 30" fill="none" xmlns="http://www.w3.org/2000/svg">
<ellipse cx="7.57952" cy="11.2108" rx="2.05266" ry="2.05262" fill="#F9F9F9"/>
<ellipse cx="18.6323" cy="11.2108" rx="2.05266" ry="2.05262" fill="#F9F9F9"/>
<path d="M13.1053 0L13.7434 1.96383H15.8084L14.1378 3.17755L14.7759 5.14138L13.1053 3.92767L11.4348 5.14138L12.0729 3.17755L10.4023 1.96383H12.4672L13.1053 0Z" fill="#F9F9F9"/>
<path d="M8.05212 4.10522L8.40662 5.19624H9.55381L8.62571 5.87053L8.98021 6.96155L8.05212 6.28726L7.12402 6.96155L7.47852 5.87053L6.55042 5.19624H7.69762L8.05212 4.10522Z" fill="#F9F9F9"/>
<path d="M18.4745 4.10522L18.829 5.19624H19.9762L19.0481 5.87053L19.4026 6.96155L18.4745 6.28726L17.5464 6.96155L17.9009 5.87053L16.9728 5.19624H18.12L18.4745 4.10522Z" fill="#F9F9F9"/>
<path d="M4.89453 28.7365L8.68407 18.9471L12.7894 20.684L4.89453 28.7365Z" fill="#F9F9F9"/>
<path d="M21.3164 28.737L17.8427 18.7897L13.4215 20.6844L21.3164 28.737Z" fill="#F9F9F9"/>
<path d="M12.7898 20.6844V30.0001L9.63184 23.8423L12.7898 20.6844Z" fill="#F9F9F9"/>
<path d="M13.4209 20.6844V30.0003L16.4209 23.6844L13.4209 20.6844Z" fill="#F9F9F9"/>
<path d="M12.7897 20.6839V7.57874L9.47383 15.4734H0L12.7897 20.6839Z" fill="#F9F9F9"/>
<path d="M13.4208 20.684V7.57886L16.7366 15.4735H26.2104L13.4208 20.684Z" fill="#F9F9F9"/>
</svg>
